<svg width="378" height="374" viewBox="0 0 378 374" fill="none" xmlns="http://www.w3.org/2000/svg">
<g clip-path="url(#clip0_437_3201)">
<path d="M347.099 86C363.935 86 377.599 99.664 377.599 116.5C377.599 133.336 363.935 147 347.099 147C330.263 147 316.599 133.336 316.599 116.5C316.599 99.664 330.263 86 347.099 86Z" fill="#121827" fill-opacity="0.37"/>
<path opacity="0.9" d="M366.74 130.042C366.74 130.896 366.008 131.506 364.91 131.506C363.934 131.506 363.202 130.896 363.202 130.042V107.716C363.202 107.594 363.202 107.594 363.08 107.594C362.958 107.594 362.958 107.594 362.836 107.594L348.806 125.528C348.196 126.138 347.098 126.382 346.366 125.894C346.122 125.772 346 125.65 345.878 125.528L331.848 107.594C331.726 107.594 331.726 107.594 331.604 107.594L331.482 107.716V130.164C331.482 131.018 330.628 131.628 329.652 131.628C328.676 131.628 327.944 131.018 327.944 130.164V103.324C327.944 102.836 328.31 102.348 328.676 102.104C329.53 101.616 330.506 101.86 331.116 102.47L346.61 122.112C346.976 122.478 347.464 122.478 347.83 122.234C347.83 122.234 347.952 122.234 347.952 122.112L363.446 102.47C363.812 101.982 364.422 101.738 365.032 101.738C366.008 101.738 366.862 102.348 366.862 103.202L366.74 130.042Z" fill="url(#paint0_linear_437_3201)"/>
<path d="M366.74 130.041C366.74 130.773 366.008 131.505 364.91 131.505C364.3 131.505 363.69 131.261 363.324 130.773L347.952 111.131C347.586 110.765 347.098 110.765 346.732 111.009C346.732 111.009 346.61 111.131 346.488 111.375L331.238 130.895C330.628 131.627 329.652 131.749 328.798 131.261C328.31 131.017 328.066 130.529 328.066 130.041V103.323C328.066 102.469 328.798 101.859 329.774 101.859C330.75 101.859 331.604 102.469 331.604 103.323V125.771C331.604 125.893 331.604 125.893 331.726 125.893C331.848 125.893 331.848 125.893 331.97 125.893L345.634 108.447C345.756 108.203 346.244 107.715 346.488 107.593C347.342 107.105 348.318 107.227 348.928 107.959L362.836 125.893C362.836 125.893 362.958 125.893 363.08 125.893C363.202 125.893 363.202 125.771 363.202 125.771V103.323C363.202 102.469 363.934 101.859 364.91 101.859C365.886 101.859 366.74 102.469 366.74 103.323V130.041Z" fill="url(#paint1_linear_437_3201)"/>
</g>
<g clip-path="url(#clip1_437_3201)">
<path d="M120.445 374C137.29 374 150.945 360.345 150.945 343.5C150.945 326.655 137.29 313 120.445 313C103.601 313 89.9453 326.655 89.9453 343.5C89.9453 360.345 103.601 374 120.445 374Z" fill="#121827" fill-opacity="0.37"/>
<path d="M127.073 338.788V347.399L119.592 351.659V343.052L127.071 338.792L127.073 338.788ZM136 336.581V349.417C136 350.329 135.757 351.222 135.3 351.998C134.848 352.772 134.194 353.429 133.383 353.891L127.804 357.068V348.598L128.509 348.196V337.975L135.342 334.081C135.766 334.837 136 335.692 136 336.583V336.581ZM105.617 353.891C104.857 353.461 104.214 352.837 103.75 352.079C103.262 351.283 103.002 350.361 103 349.418V341.2L110.684 347.419V347.764L110.696 348.121L111.293 348.486L118.963 352.856L119.596 353.216V360.999C118.649 361.018 117.714 360.781 116.883 360.311L105.617 353.889V353.891ZM105.298 332.309L113.421 327.701L118.944 333.244L110.684 337.966V338.686L103.017 343.049L103 336.58C103 335.667 103.243 334.771 103.703 333.995C104.106 333.311 104.652 332.735 105.298 332.307V332.309ZM133.383 332.109C134.196 332.569 134.873 333.251 135.342 334.08L128.509 337.973V337.908L127.804 337.507L120.276 333.219L127.804 328.93L133.383 332.109ZM103.017 343.052L110.684 338.684V347.419L103.017 343.05V343.052ZM119.596 332.884V325.001C120.478 325.015 121.343 325.251 122.117 325.69L127.804 328.93L120.276 333.217L119.596 332.884ZM118.963 333.244L111.307 328.885L117.216 325.518C117.962 325.162 118.775 324.985 119.596 325.001V332.884L118.963 333.244ZM119.644 353.243L120.276 352.883L127.714 357.12L122.117 360.31C121.343 360.748 120.478 360.984 119.596 360.997V353.216L119.644 353.243ZM127.804 348.596V357.068L127.714 357.12L120.276 352.883L127.804 348.596Z" fill="url(#paint2_linear_437_3201)"/>
</g>
<g clip-path="url(#clip2_437_3201)">
<path d="M38.5586 122C55.4033 122 69.0586 108.345 69.0586 91.5C69.0586 74.6553 55.4033 61 38.5586 61C21.7139 61 8.05859 74.6553 8.05859 91.5C8.05859 108.345 21.7139 122 38.5586 122Z" fill="#121827" fill-opacity="0.37"/>
<path d="M52.711 87.0555H37.4991C36.3212 87.0536 35.1654 87.3746 34.1571 87.9835C33.1489 88.5924 32.3267 89.4659 31.78 90.5092C31.2333 91.5525 30.983 92.7257 31.0562 93.9013C31.1293 95.0768 31.5233 96.2099 32.1951 97.1773C32.867 98.1448 33.7911 98.9096 34.8671 99.3887C35.9431 99.8679 37.1298 100.043 38.2984 99.8951C39.4669 99.7472 40.5726 99.2819 41.4952 98.5498C42.4179 97.8177 43.1223 96.8467 43.532 95.7424H37.4991C37.2756 95.7426 37.0543 95.6987 36.8478 95.6133C36.6413 95.5279 36.4537 95.4026 36.2957 95.2446C36.1377 95.0866 36.0124 94.899 35.927 94.6925C35.8416 94.486 35.7977 94.2647 35.7979 94.0412V93.835C35.7977 93.6116 35.8416 93.3903 35.927 93.1838C36.0124 92.9773 36.1377 92.7897 36.2957 92.6317C36.4537 92.4737 36.6413 92.3484 36.8478 92.2629C37.0543 92.1775 37.2756 92.1337 37.4991 92.1339H47.5545C47.6276 92.6028 47.6625 93.0768 47.6576 93.5507C47.6477 95.5577 47.0435 97.5168 45.9213 99.1808C44.7991 100.845 43.2092 102.139 41.3521 102.9C39.495 103.662 37.4541 103.856 35.4868 103.458C33.5196 103.06 31.7142 102.089 30.2985 100.666C28.8828 99.2437 27.9202 97.4335 27.5323 95.4644C27.1443 93.4952 27.3484 91.4552 28.1187 89.6018C28.889 87.7485 30.1911 86.1649 31.8605 85.0509C33.53 83.9368 35.492 83.3423 37.4991 83.3422L37.81 83.2907C37.8749 83.3206 37.943 83.3372 38.0162 83.3422H47.039C51.9627 83.3422 53.9732 80.7132 53.9732 77H37.4991C28.3998 77 21.0166 84.3716 21 93.4742C20.9867 102.577 28.3466 109.97 37.4492 110C46.5517 110.028 53.9565 102.68 53.9998 93.5773V88.3691C54.0031 88.1978 53.9722 88.0275 53.9089 87.8683C53.8456 87.709 53.7512 87.564 53.6312 87.4417C53.5112 87.3194 53.368 87.2222 53.21 87.1559C53.052 87.0896 52.8824 87.0554 52.711 87.0555Z" fill="url(#paint3_linear_437_3201)"/>
</g>
<circle cx="238.153" cy="14.9569" r="14.8437" fill="#121827" fill-opacity="0.37"/>
<circle cx="238.154" cy="14.9588" r="8.40413" fill="url(#paint4_radial_437_3201)"/>
<circle cx="292.153" cy="322.957" r="14.8437" fill="#121827" fill-opacity="0.37"/>
<circle cx="292.154" cy="322.959" r="8.40413" fill="url(#paint5_radial_437_3201)"/>
<circle cx="15.1523" cy="227.957" r="14.8437" fill="#121827" fill-opacity="0.37"/>
<circle cx="15.1522" cy="227.959" r="8.40413" fill="url(#paint6_radial_437_3201)"/>
<defs>
<linearGradient id="paint0_linear_437_3201" x1="347.403" y1="101.738" x2="347.403" y2="131.628" gradientUnits="userSpaceOnUse">
<stop stop-color="white"/>
<stop offset="1" stop-color="#5C7DF9"/>
</linearGradient>
<linearGradient id="paint1_linear_437_3201" x1="355" y1="37.999" x2="347" y2="131.999" gradientUnits="userSpaceOnUse">
<stop stop-color="#5C7DF9"/>
<stop offset="0.947917" stop-color="white"/>
</linearGradient>
<linearGradient id="paint2_linear_437_3201" x1="136" y1="275.5" x2="120" y2="370.5" gradientUnits="userSpaceOnUse">
<stop stop-color="#75A1FF"/>
<stop offset="1" stop-color="white"/>
</linearGradient>
<linearGradient id="paint3_linear_437_3201" x1="38" y1="27.5" x2="38" y2="113" gradientUnits="userSpaceOnUse">
<stop stop-color="#2367E8"/>
<stop offset="1" stop-color="white"/>
</linearGradient>
<radialGradient id="paint4_radial_437_3201" cx="0" cy="0" r="1" gradientUnits="userSpaceOnUse" gradientTransform="translate(235.098 5.40868) rotate(68.4287) scale(17.6634 208.082)">
<stop stop-color="#75A1FF"/>
<stop offset="1" stop-color="#2367E8"/>
</radialGradient>
<radialGradient id="paint5_radial_437_3201" cx="0" cy="0" r="1" gradientUnits="userSpaceOnUse" gradientTransform="translate(289.098 313.409) rotate(68.4287) scale(17.6634 208.082)">
<stop stop-color="#75A1FF"/>
<stop offset="1" stop-color="#2367E8"/>
</radialGradient>
<radialGradient id="paint6_radial_437_3201" cx="0" cy="0" r="1" gradientUnits="userSpaceOnUse" gradientTransform="translate(12.0961 218.409) rotate(68.4287) scale(17.6634 208.082)">
<stop stop-color="#75A1FF"/>
<stop offset="1" stop-color="#2367E8"/>
</radialGradient>
<clipPath id="clip0_437_3201">
<rect width="61" height="61" fill="white" transform="translate(316.599 86)"/>
</clipPath>
<clipPath id="clip1_437_3201">
<rect width="61" height="61" fill="white" transform="translate(89.9453 313)"/>
</clipPath>
<clipPath id="clip2_437_3201">
<rect width="61" height="61" fill="white" transform="translate(8.05859 61)"/>
</clipPath>
</defs>
</svg>
