<svg width="22" height="22" viewBox="0 0 22 22" fill="none" xmlns="http://www.w3.org/2000/svg">
<path d="M17.1403 9.72093C16.7207 9.72093 16.3728 9.37302 16.3728 8.95349V6.90698C16.3728 3.68372 15.4621 1.53488 11.0007 1.53488C6.53933 1.53488 5.62863 3.68372 5.62863 6.90698V8.95349C5.62863 9.37302 5.28073 9.72093 4.86119 9.72093C4.44166 9.72093 4.09375 9.37302 4.09375 8.95349V6.90698C4.09375 3.93953 4.81003 0 11.0007 0C17.1914 0 17.9077 3.93953 17.9077 6.90698V8.95349C17.9077 9.37302 17.5598 9.72093 17.1403 9.72093Z" fill="#75A1FF"/>
<path d="M11.0014 18.4168C9.16973 18.4168 7.67578 16.9228 7.67578 15.0912C7.67578 13.2596 9.16973 11.7656 11.0014 11.7656C12.833 11.7656 14.3269 13.2596 14.3269 15.0912C14.3269 16.9228 12.833 18.4168 11.0014 18.4168ZM11.0014 13.3005C10.019 13.3005 9.21066 14.1089 9.21066 15.0912C9.21066 16.0735 10.019 16.8819 11.0014 16.8819C11.9837 16.8819 12.7921 16.0735 12.7921 15.0912C12.7921 14.1089 11.9837 13.3005 11.0014 13.3005Z" fill="#75A1FF"/>
<path d="M16.1163 22.0015H5.88372C1.37116 22.0015 0 20.6303 0 16.1177V14.0712C0 9.55866 1.37116 8.1875 5.88372 8.1875H16.1163C20.6288 8.1875 22 9.55866 22 14.0712V16.1177C22 20.6303 20.6288 22.0015 16.1163 22.0015ZM5.88372 9.72238C2.22047 9.72238 1.53488 10.4182 1.53488 14.0712V16.1177C1.53488 19.7708 2.22047 20.4666 5.88372 20.4666H16.1163C19.7795 20.4666 20.4651 19.7708 20.4651 16.1177V14.0712C20.4651 10.4182 19.7795 9.72238 16.1163 9.72238H5.88372Z" fill="#75A1FF"/>
</svg>
