<svg width="45" height="48" viewBox="0 0 45 48" fill="none" xmlns="http://www.w3.org/2000/svg">
<path d="M20.6947 7H20.6488L20.1897 7.0925C19.1797 7.21583 18.1927 7.50104 17.2286 7.94813C16.2645 8.39521 15.4152 8.98875 14.6807 9.72875C13.4259 10.8696 12.5536 12.2725 12.0639 13.9375C11.7885 14.8625 11.666 15.8337 11.6966 16.8512C11.7273 17.8688 11.9109 18.84 12.2476 19.765C12.7678 21.1525 13.5636 22.355 14.6348 23.3725L15.2316 23.9275L11.4212 30.1712C10.6255 30.1404 9.93683 30.2483 9.35532 30.495C8.43716 30.8958 7.74853 31.5125 7.28945 32.345C7.07521 32.8075 6.93748 33.2854 6.87627 33.7787C6.81506 34.2721 6.84567 34.7654 6.96809 35.2588C7.21293 36.1838 7.71792 36.9237 8.48306 37.4788C8.94215 37.7871 9.44714 38.0106 9.99804 38.1494C10.5489 38.2881 11.0998 38.319 11.6507 38.2419C12.2016 38.1648 12.7296 37.9721 13.2346 37.6637C13.7396 37.3554 14.1604 36.97 14.4971 36.5075C14.8643 35.9833 15.0862 35.3821 15.1627 34.7038C15.2392 34.0254 15.1551 33.3933 14.9102 32.8075C14.8796 32.6533 14.7725 32.4375 14.5889 32.16L14.4512 31.8825L19.8683 23.0025C20.052 22.725 20.1744 22.5092 20.2356 22.355L19.7765 22.2163C19.5011 22.1546 19.3021 22.0929 19.1797 22.0312C18.4758 21.7229 17.8407 21.299 17.2745 20.7594C16.7083 20.2198 16.2722 19.6108 15.9661 18.9325C15.4458 17.8225 15.3081 16.6663 15.553 15.4637C15.6754 14.7546 15.9355 14.0917 16.3334 13.475C16.7313 12.8583 17.2057 12.3342 17.7566 11.9025C18.889 11.07 20.1438 10.6537 21.521 10.6537C22.3474 10.6229 23.1508 10.7694 23.9312 11.0931C24.7117 11.4169 25.3926 11.8871 25.9742 12.5037C26.4944 12.9971 26.9 13.5906 27.1907 14.2844C27.4815 14.9781 27.6422 15.6796 27.6728 16.3888C27.6728 16.9129 27.5809 17.5604 27.3973 18.3313L30.6109 19.21L30.9782 19.2563C31.4066 17.9304 31.5138 16.6046 31.2995 15.2788C31.1771 14.2613 30.8787 13.2823 30.4043 12.3419C29.9299 11.4015 29.3255 10.5767 28.5909 9.8675C27.3055 8.5725 25.7293 7.70917 23.8624 7.2775C23.6787 7.21583 23.4033 7.15417 23.036 7.0925L22.3933 7H20.6947ZM21.521 12.735C21.0007 12.735 20.4805 12.8429 19.9602 13.0588C19.4399 13.2746 18.9731 13.5906 18.56 14.0069C18.1468 14.4231 17.8484 14.9088 17.6647 15.4637C17.4199 16.0804 17.3587 16.7587 17.4811 17.4987C17.5729 18.0538 17.7872 18.5779 18.1238 19.0712C18.4605 19.5646 18.889 19.95 19.4093 20.2275C20.1438 20.69 21.0007 20.8904 21.9801 20.8288C22.0719 20.9521 22.1485 21.0754 22.2097 21.1988L27.3514 30.0325C27.4432 30.2175 27.535 30.3563 27.6269 30.4487C28.4532 29.6471 29.3484 29.0998 30.3125 28.8069C31.2766 28.514 32.2713 28.46 33.2965 28.645C34.3218 28.83 35.217 29.2308 35.9822 29.8475C36.9616 30.6183 37.6272 31.5665 37.9792 32.6919C38.3312 33.8173 38.3388 34.9504 38.0021 36.0912C37.7573 36.9546 37.3212 37.7254 36.6938 38.4037C36.0663 39.0821 35.3242 39.5908 34.4672 39.93C33.5184 40.3308 32.5008 40.4619 31.4143 40.3231C30.3278 40.1844 29.3561 39.8067 28.4991 39.19C28.3767 39.0975 28.1778 38.9433 27.9023 38.7275L27.6728 38.45C27.5503 38.5425 27.382 38.6967 27.1678 38.9125L25.0101 41.04C25.714 41.7492 26.5098 42.3427 27.3973 42.8206C28.2849 43.2985 29.2183 43.63 30.1977 43.815L31.2077 44H32.9981L34.2836 43.7687C36.2423 43.3679 37.9256 42.4429 39.3335 40.9938C40.0068 40.3154 40.5654 39.5369 41.0091 38.6581C41.4529 37.7794 41.7513 36.8621 41.9044 35.9062C42.0574 34.7963 42.0268 33.694 41.8125 32.5994C41.5983 31.5048 41.2157 30.5104 40.6648 29.6163C40.1139 28.7221 39.4406 27.9358 38.6449 27.2575C37.8491 26.5792 36.9769 26.0396 36.0281 25.6388C34.9875 25.2071 33.9086 24.9604 32.7915 24.8988C31.6744 24.8371 30.5803 24.945 29.5091 25.2225L28.7287 25.4538L25.0101 19.1175C25.4079 18.5317 25.6528 17.9613 25.7446 17.4062C25.8976 16.4196 25.6987 15.4946 25.1478 14.6312C24.6581 13.8604 23.9848 13.3208 23.1278 13.0125C22.6075 12.8275 22.0719 12.735 21.521 12.735ZM8.57488 24.945C6.79976 25.3458 5.26948 26.1629 3.98404 27.3962C2.54558 28.7529 1.61211 30.3717 1.18363 32.2525L1 33.3625V35.0737L1.09182 35.5825C1.15303 35.9833 1.21424 36.2917 1.27545 36.5075C1.48969 37.4633 1.86461 38.3729 2.40021 39.2363C2.9358 40.0996 3.58617 40.855 4.35131 41.5025C5.88159 42.7667 7.64141 43.5221 9.63077 43.7687C10.7938 43.8921 11.9568 43.8227 13.1198 43.5606C14.2828 43.2985 15.354 42.8592 16.3334 42.2425C17.9555 41.1942 19.1491 39.7913 19.9142 38.0338C20.1285 37.5096 20.3427 36.8158 20.557 35.9525C20.7406 35.9217 21.016 35.9217 21.3833 35.9525L27.1219 36.045C27.5503 36.045 27.8564 36.0604 28.04 36.0912C28.3767 36.7079 28.7593 37.1858 29.1877 37.525C29.6162 37.8642 30.0983 38.1108 30.6339 38.265C31.1695 38.4192 31.7127 38.4808 32.2636 38.45C33.1206 38.3575 33.8857 38.0492 34.559 37.525C35.3854 36.8775 35.8751 36.045 36.0281 35.0275C36.0893 34.5033 36.0663 33.9946 35.9592 33.5013C35.8521 33.0079 35.6455 32.5454 35.3395 32.1138C34.8498 31.4354 34.2224 30.9421 33.4572 30.6338C32.9369 30.4179 32.3937 30.3177 31.8275 30.3331C31.2613 30.3485 30.718 30.4642 30.1977 30.68C29.3408 31.05 28.6827 31.6204 28.2237 32.3913L28.0859 32.6688C27.6575 32.6688 27.0147 32.6533 26.1578 32.6225L20.9701 32.5763C20.5111 32.5454 19.853 32.53 18.9961 32.53L16.7007 32.4837L16.8384 33.27C17.0832 34.5958 16.8843 35.8446 16.2416 37.0163C15.8131 37.8488 15.201 38.5425 14.4052 39.0975C13.6095 39.6525 12.7372 39.9917 11.7885 40.115C10.7173 40.3 9.64608 40.1844 8.57488 39.7681C7.50369 39.3519 6.63143 38.6967 5.9581 37.8025C5.10115 36.7233 4.68797 35.5054 4.71858 34.1488C4.74918 33.0079 5.10115 31.9442 5.77447 30.9575C6.17234 30.3717 6.66203 29.8783 7.24354 29.4775C7.82504 29.0767 8.45246 28.7838 9.12578 28.5988L9.53896 28.46L8.57488 24.945Z" fill="white"/>
</svg>
