<svg width="18" height="21" viewBox="0 0 18 21" fill="none" xmlns="http://www.w3.org/2000/svg">
<path d="M7.72686 1.2209L2.98574 3.00712C1.89311 3.41567 1 4.70783 1 5.86697V12.9264C1 14.0475 1.74109 15.5202 2.6437 16.1948L6.72921 19.2447C8.0689 20.2518 10.2732 20.2518 11.6128 19.2447L15.6983 16.1948C16.6009 15.5202 17.342 14.0475 17.342 12.9264V5.86697C17.342 4.69833 16.4489 3.40617 15.3563 2.99762L10.6152 1.2209C9.80761 0.926366 8.51545 0.926366 7.72686 1.2209Z" stroke="#75A1FF" stroke-linecap="round" stroke-linejoin="round"/>
<path d="M9.20437 13.0884C10.8738 13.0884 12.2271 11.7351 12.2271 10.0657C12.2271 8.39629 10.8738 7.04297 9.20437 7.04297C7.53492 7.04297 6.18164 8.39629 6.18164 10.0657C6.18164 11.7351 7.53492 13.0884 9.20437 13.0884Z" stroke="#75A1FF" stroke-miterlimit="10" stroke-linecap="round" stroke-linejoin="round"/>
</svg>
