<svg width="45" height="45" viewBox="0 0 45 45" fill="none" xmlns="http://www.w3.org/2000/svg">
<path d="M32.3405 42.68C32.0805 43.2 31.5405 43.5 31.0005 43.5C30.7805 43.5 30.5405 43.44 30.3405 43.34L23.0005 39.68L15.6605 43.34C15.4605 43.44 15.2205 43.5 15.0005 43.5C14.4605 43.5 13.9205 43.2 13.6605 42.68C13.2805 41.92 13.5805 41.02 14.3405 40.66L21.5005 37.08V32H24.5005V37.08L31.6605 40.66C32.4205 41.02 32.7205 41.92 32.3405 42.68Z" fill="white"/>
<path d="M5 2V26.2C5 30 7 32 10.8 32H35.2C39 32 41 30 41 26.2V2H5ZM32.96 15.16L26.66 20.42C26.08 20.9 25.34 21.1 24.64 20.98C23.92 20.86 23.3 20.42 22.92 19.78L20.82 16.28L14.96 21.16C14.68 21.4 14.34 21.5 14 21.5C13.58 21.5 13.14 21.32 12.84 20.96C12.3 20.32 12.4 19.38 13.04 18.84L19.34 13.58C19.92 13.1 20.66 12.9 21.36 13.02C22.08 13.14 22.7 13.58 23.08 14.22L25.18 17.72L31.04 12.84C31.68 12.3 32.62 12.4 33.16 13.04C33.68 13.68 33.6 14.62 32.96 15.16Z" fill="white"/>
<path d="M3 4.5H43C44.3723 4.5 45.5 3.37228 45.5 2C45.5 0.627715 44.3723 -0.5 43 -0.5H3C1.62772 -0.5 0.5 0.627715 0.5 2C0.5 3.37228 1.62772 4.5 3 4.5Z" fill="#75A1FF" stroke="#09111E" stroke-width="2"/>
</svg>
