<svg width="21" height="20" viewBox="0 0 21 20" fill="none" xmlns="http://www.w3.org/2000/svg">
<path d="M4.5882 20C4.49512 20 4.39273 19.9907 4.30895 19.9814L2.28906 19.7021C1.321 19.5718 0.446016 18.7061 0.297083 17.7195L0.0178348 15.681C-0.075248 15.0294 0.204 14.1823 0.669415 13.7076L4.75575 9.62126C4.09486 6.97772 4.85814 4.18524 6.80358 2.25842C9.8195 -0.748152 14.725 -0.75746 17.7502 2.25842C19.2116 3.71982 20.0121 5.66526 20.0121 7.73169C20.0121 9.79812 19.2116 11.7435 17.7502 13.2049C15.7954 15.1411 13.0122 15.9044 10.3873 15.2342L6.29162 19.3205C5.90067 19.7301 5.20255 20 4.5882 20ZM12.2676 1.39275C10.6386 1.39275 9.01899 2.0071 7.78095 3.2451C6.10545 4.91128 5.50042 7.35006 6.19854 9.62126C6.273 9.87258 6.20785 10.1332 6.02168 10.3194L1.64679 14.6943C1.48854 14.8525 1.35823 15.2621 1.38615 15.4762L1.6654 17.5147C1.72125 17.8684 2.10289 18.2687 2.45661 18.3152L4.48581 18.5944C4.70921 18.6317 5.11878 18.5014 5.27702 18.3431L9.67057 13.9589C9.85673 13.7728 10.1267 13.7169 10.3687 13.7914C12.612 14.4988 15.0601 13.8938 16.7356 12.2183C17.927 11.0268 18.5879 9.42578 18.5879 7.73169C18.5879 6.02828 17.927 4.43656 16.7356 3.2451C15.5255 2.01641 13.8965 1.39275 12.2676 1.39275Z" fill="#75A1FF"/>
<path d="M7.39139 17.945C7.21453 17.945 7.03767 17.8798 6.89805 17.7402L4.75714 15.5993C4.4872 15.3293 4.4872 14.8826 4.75714 14.6126C5.02708 14.3427 5.47388 14.3427 5.74382 14.6126L7.88473 16.7535C8.15469 17.0235 8.15469 17.4703 7.88473 17.7402C7.7451 17.8798 7.56825 17.945 7.39139 17.945Z" fill="#75A1FF"/>
<path d="M12.3326 9.75904C11.1784 9.75904 10.2383 8.8189 10.2383 7.66468C10.2383 6.51045 11.1784 5.57031 12.3326 5.57031C13.4869 5.57031 14.427 6.51045 14.427 7.66468C14.427 8.8189 13.4869 9.75904 12.3326 9.75904ZM12.3326 6.96656C11.951 6.96656 11.6345 7.28304 11.6345 7.66468C11.6345 8.04632 11.951 8.3628 12.3326 8.3628C12.7143 8.3628 13.0308 8.04632 13.0308 7.66468C13.0308 7.28304 12.7143 6.96656 12.3326 6.96656Z" fill="#75A1FF"/>
</svg>
