<svg width="49" height="41" viewBox="0 0 49 41" fill="none" xmlns="http://www.w3.org/2000/svg">
<path d="M23.3542 0.080234C24.9784 -0.146394 26.6687 0.108562 28.1418 0.826217C30.1059 1.76106 31.6734 3.48909 32.4099 5.53818C33.3447 8.06886 32.9387 11.0622 31.3429 13.2435C29.9264 15.2737 27.5563 16.6052 25.0823 16.7468C22.6177 16.9357 20.1059 15.9347 18.4251 14.1312C17.3297 12.9791 16.5743 11.506 16.291 9.93854C15.8944 7.91778 16.291 5.75537 17.3769 4.00845C18.6612 1.89326 20.9086 0.40129 23.3542 0.080234Z" fill="white"/>
<path d="M8.96323 7.87031C10.3702 7.68145 11.8433 7.99307 13.0614 8.73905C14.2229 9.44726 15.1388 10.5426 15.6393 11.8174C16.1681 13.1677 16.2059 14.6975 15.7432 16.0667C15.1105 18.0025 13.4675 19.57 11.5033 20.1271C10.0208 20.552 8.37777 20.4009 6.99912 19.7116C5.64879 19.0412 4.56287 17.8703 3.9963 16.4822C3.44862 15.1696 3.37307 13.6588 3.78856 12.299C4.44956 9.96662 6.56475 8.15359 8.96323 7.87031Z" fill="#15B785"/>
<path d="M38.5105 7.86007C39.8702 7.69954 41.2867 7.98282 42.467 8.69103C43.6568 9.39925 44.6105 10.5135 45.111 11.8072C45.687 13.2708 45.687 14.9516 45.0921 16.4058C44.535 17.8317 43.4302 19.0215 42.061 19.7014C41.06 20.2113 39.908 20.419 38.7938 20.3435C36.8108 20.2113 34.9411 19.0404 33.9213 17.3407C32.5804 15.2444 32.722 12.3454 34.2234 10.3719C35.2244 8.98376 36.8108 8.05837 38.5105 7.86007Z" fill="#15B785"/>
<path d="M19.5304 18.533C20.182 18.4763 20.843 18.4952 21.4945 18.4952C23.9213 18.4952 26.3387 18.4952 28.7655 18.4952C30.4463 18.4858 32.1177 19.109 33.3831 20.2232C34.5728 21.262 35.4038 22.7067 35.6588 24.2648C35.8004 25.0108 35.7626 25.7756 35.7721 26.5405C35.7721 30.8842 35.7721 35.2184 35.7721 39.5621C35.791 40.1004 35.4699 40.6386 34.9694 40.8653C34.6295 41.0352 34.2329 40.9975 33.8646 41.0069C27.4718 41.0069 21.0885 41.0069 14.6957 41.0069C13.9214 41.0447 13.2226 40.3459 13.2698 39.5716C13.2698 34.888 13.2698 30.1949 13.2698 25.5112C13.2698 23.9909 13.7703 22.4706 14.6957 21.262C15.8477 19.7322 17.6419 18.7218 19.5304 18.533Z" fill="white"/>
<path d="M2.61784 23.9782C3.84541 22.8356 5.48846 22.1746 7.15984 22.1368C8.46295 22.1179 9.76606 22.1274 11.0692 22.1274C10.6537 23.2983 10.4648 24.5353 10.4743 25.7817C10.4743 29.9082 10.4743 34.0253 10.4743 38.1518C10.4837 39.1056 10.3987 40.0782 10.7103 40.9941C9.07673 40.9941 7.45256 40.9941 5.81896 40.9941C5.12963 40.9847 4.4403 41.0224 3.75098 40.9091C2.96722 40.758 2.24013 40.3898 1.65467 39.8421C0.852032 39.0867 0.398777 37.9913 0.351562 36.8771V28.9356C0.408219 27.066 1.22974 25.234 2.61784 23.9782Z" fill="#15B785"/>
<path d="M37.9805 22.1292C39.1325 22.1198 40.2845 22.1292 41.4271 22.1292C42.1259 22.1292 42.8341 22.1859 43.5045 22.3653C45.0248 22.7619 46.394 23.7061 47.3289 24.9715C48.1787 26.1141 48.6509 27.5116 48.6886 28.9375V36.8789C48.6414 37.5116 48.5187 38.1537 48.2165 38.7202C47.631 39.8723 46.479 40.7221 45.2042 40.9299C44.5432 41.0337 43.8822 40.996 43.2118 41.0054C41.5782 41.0054 39.954 41.0054 38.3204 41.0054C38.4809 40.486 38.5659 39.9384 38.5565 39.3907C38.5565 34.792 38.5565 30.1934 38.5565 25.6042C38.5754 24.4144 38.3676 23.2434 37.9805 22.1292Z" fill="#15B785"/>
</svg>
