<svg width="35" height="45" viewBox="0 0 35 45" fill="none" xmlns="http://www.w3.org/2000/svg">
<path d="M1.1416 0H25.1797C25.8301 0.0703125 26.375 0.650391 26.3662 1.30957C26.375 12.6211 26.3662 23.9326 26.3662 35.2441C26.3574 35.6045 26.4102 36 26.2344 36.334C26.0147 36.8174 25.4873 37.1162 24.96 37.0898C17.0762 37.0898 9.19238 37.0898 1.30859 37.0898C0.605469 37.0986 -0.0185547 36.4746 -0.000976562 35.7803C-0.000976562 24.4688 -0.000976562 13.1572 -0.000976562 1.8457C0.0078125 1.47656 -0.0449219 1.08984 0.130859 0.74707C0.31543 0.351563 0.719727 0.0878906 1.1416 0ZM5.03516 6.70606C4.29688 6.8291 3.77832 7.65527 4.01563 8.37598C4.16504 8.9209 4.70996 9.3252 5.27246 9.31641C7.90918 9.31641 10.5459 9.31641 13.1826 9.31641C13.8857 9.33399 14.5098 8.70117 14.501 7.99805C14.5186 7.29492 13.8857 6.66211 13.1826 6.67969C10.5723 6.67969 7.9707 6.67969 5.36035 6.67969C5.25488 6.67969 5.14063 6.68848 5.03516 6.70606ZM5.02637 11.9795C4.3584 12.0938 3.85742 12.7881 3.97168 13.4561C4.05078 14.0889 4.63965 14.5986 5.27246 14.5898C10.3965 14.5898 15.5293 14.5898 20.6533 14.5898C20.9697 14.5898 21.3037 14.6162 21.6025 14.4844C22.209 14.2471 22.5605 13.5176 22.3584 12.9023C22.209 12.3574 21.6641 11.9531 21.0928 11.9619C15.9688 11.9619 10.8359 11.9619 5.71191 11.9619C5.4834 11.9531 5.25488 11.9443 5.02637 11.9795ZM5.02637 17.2529C4.26172 17.3848 3.74316 18.2637 4.0332 18.9844C4.20898 19.5029 4.72754 19.8633 5.27246 19.8633C10.5195 19.8633 15.7666 19.8633 21.0049 19.8633C21.4619 19.8809 21.9277 19.6611 22.1826 19.2832C22.4727 18.8701 22.4814 18.2988 22.2178 17.8682C21.9717 17.4463 21.4883 17.209 21.0049 17.2266C15.9336 17.2266 10.8623 17.2266 5.79981 17.2266C5.54492 17.2266 5.28125 17.209 5.02637 17.2529ZM5.02637 22.5264C4.3584 22.6406 3.85742 23.335 3.97168 24.0117C4.05078 24.6445 4.63965 25.1455 5.27246 25.1367C10.5195 25.1367 15.7578 25.1367 21.0049 25.1367C21.5322 25.1631 22.0596 24.8643 22.2793 24.3809C22.5342 23.8711 22.3936 23.2119 21.9717 22.8428C21.6904 22.5791 21.2949 22.4736 20.917 22.5C15.8809 22.5 10.8359 22.5 5.79981 22.5C5.54492 22.5 5.28125 22.4824 5.02637 22.5264ZM15.5732 27.7998C14.9053 27.9141 14.4043 28.6084 14.5186 29.2764C14.5977 29.9092 15.1865 30.4189 15.8281 30.4102C17.5508 30.4102 19.2822 30.4102 21.0049 30.4102C21.7432 30.4629 22.4287 29.8301 22.4199 29.0918C22.4287 28.3975 21.8135 27.7647 21.1104 27.7734C19.4053 27.7734 17.709 27.7734 16.0039 27.7734C15.8545 27.7734 15.7139 27.7734 15.5732 27.7998Z" fill="#F6F6F7"/>
<path d="M29.0029 7.99619C30.3213 7.99619 31.6484 7.99619 32.9668 7.99619C33.6611 7.9874 34.2852 8.61142 34.2764 9.30576C34.2852 20.7403 34.2764 32.1661 34.2764 43.6007C34.3203 44.2862 33.7754 44.919 33.0986 44.9981H9.10449C8.4541 44.9278 7.90918 44.3477 7.91797 43.6886C7.90918 42.3702 7.91797 41.0518 7.91797 39.7247C13.543 39.7247 19.168 39.7247 24.793 39.7247C25.3818 39.7335 25.9795 39.6632 26.5244 39.4347C27.9922 38.8634 29.0293 37.3429 29.0117 35.7608C29.0117 26.5059 29.0029 17.2511 29.0029 7.99619Z" fill="#00B3FF"/>
</svg>
