<svg width="1440" height="400" viewBox="0 0 1440 400" fill="none" xmlns="http://www.w3.org/2000/svg">
<path d="M1 167.143L84.0066 306.792C86.7407 311.391 92.6112 313.024 97.3273 310.496L142.215 286.433C146.552 284.109 151.935 285.284 154.908 289.205L215.798 369.5C216.821 370.848 218.169 371.915 219.716 372.6L276.762 397.866C281.886 400.135 287.873 397.753 290.037 392.584L354.518 238.52C356.075 234.801 359.712 232.381 363.743 232.381H443.826C447.34 232.381 450.596 230.537 452.403 227.524L538.329 84.2232C539.871 81.6507 542.487 79.9065 545.455 79.4715L712.119 55.0441C716.161 54.4517 720.157 56.3773 722.212 59.9078L808.32 207.84C810.111 210.917 813.402 212.81 816.962 212.81H886.356C890.044 212.81 893.432 210.78 895.173 207.528L955.382 95.0244C958.966 88.3289 968.411 87.9137 972.568 94.2689L1042.05 200.499C1045.92 206.406 1054.52 206.559 1058.59 200.794L1196.17 5.96712C1200.74 -0.496629 1210.64 0.650428 1213.61 7.9861L1239.38 71.7058C1241.32 76.4951 1246.58 79.0205 1251.53 77.5327L1319.4 57.1203C1324.92 55.4623 1330.69 58.7897 1332.01 64.3915L1380.56 269.308C1382.1 275.83 1389.5 279.015 1395.3 275.658L1440 249.778" stroke="#212B4F" stroke-width="2" stroke-linecap="round"/>
</svg>
