<svg width="1440" height="350" viewBox="0 0 1440 350" fill="none" xmlns="http://www.w3.org/2000/svg">
<path opacity="0.2" d="M84.281 232.423L1 129.452V350H1440V190.183L1393.73 209.869C1388.32 212.171 1382.1 209.331 1380.3 203.735L1332.36 55.0072C1330.78 50.0978 1325.72 47.1975 1320.68 48.3108L1250.11 63.9095C1245.78 64.8672 1241.33 62.8545 1239.19 58.9664L1213.29 11.909C1210.04 6.00069 1201.99 4.93889 1197.32 9.80171L1057.6 155.217C1053.56 159.421 1046.79 159.292 1042.92 154.937L971.588 74.7937C967.347 70.0289 959.789 70.399 956.034 75.5555L895.341 158.9C893.459 161.485 890.455 163.014 887.258 163.014H816.049C812.994 163.014 810.106 161.617 808.209 159.222L722.235 50.6716C720.103 47.9798 716.739 46.5701 713.325 46.9378L544.848 65.0854C542.232 65.3671 539.833 66.668 538.17 68.7062L452.491 173.719C450.592 176.047 447.747 177.397 444.743 177.397H362.901C359.307 177.397 355.989 179.326 354.211 182.449L290.129 294.972C287.781 299.095 282.857 301.001 278.345 299.532L219.559 280.397C218.11 279.925 216.788 279.129 215.694 278.069L154.374 218.641C151.556 215.909 147.4 215.079 143.749 216.518L95.7217 235.438C91.6588 237.039 87.0271 235.818 84.281 232.423Z" fill="url(#paint0_linear_437_3097)"/>
<path opacity="0.2" d="M1 129L84.2853 231.617C87.0304 234.999 91.6493 236.215 95.7041 234.623L143.765 215.755C147.409 214.325 151.551 215.151 154.367 217.87L215.694 277.098C216.788 278.155 218.109 278.948 219.556 279.417L278.362 298.492C282.867 299.953 287.78 298.053 290.13 293.941L354.208 181.816C355.989 178.7 359.302 176.778 362.891 176.778H444.753C447.752 176.778 450.592 175.433 452.491 173.113L538.17 68.4668C539.833 66.4351 542.229 65.1392 544.84 64.859L713.338 46.7725C716.745 46.4068 720.102 47.8109 722.234 50.4933L808.21 158.667C810.107 161.053 812.989 162.444 816.038 162.444H887.268C890.46 162.444 893.459 160.921 895.342 158.345L956.043 75.2797C959.798 70.1407 967.335 69.7713 971.575 74.5184L1042.93 154.408C1046.8 158.746 1053.55 158.875 1057.59 154.688L1197.34 9.75222C1202.01 4.9073 1210.04 5.96748 1213.29 11.8591L1239.19 58.7581C1241.33 62.6358 1245.77 64.6426 1250.09 63.6897L1320.7 48.1389C1325.73 47.0308 1330.78 49.9259 1332.36 54.8273L1380.3 203.014C1382.1 208.6 1388.31 211.435 1393.71 209.144L1440 189.519" stroke="#5C7DF9" stroke-width="2" stroke-linecap="round"/>
<defs>
<linearGradient id="paint0_linear_437_3097" x1="720.5" y1="0" x2="720.5" y2="350" gradientUnits="userSpaceOnUse">
<stop stop-color="#5C7DF9" stop-opacity="0.29"/>
<stop offset="1" stop-color="#5C7DF9" stop-opacity="0"/>
</linearGradient>
</defs>
</svg>
