<?xml version="1.0" encoding="UTF-8"?>
<svg id="Layer_2" data-name="Layer 2" xmlns="http://www.w3.org/2000/svg" viewBox="0 0 2874.22 647.24">
  <defs>
    <style>
      .cls-1 {
        fill: #fff;
      }

      .cls-2 {
        opacity: .7;
      }

      .cls-2, .cls-3, .cls-4, .cls-5 {
        isolation: isolate;
      }

      .cls-3 {
        opacity: .8;
      }

      .cls-4 {
        opacity: .6;
      }

      .cls-5 {
        opacity: .9;
      }
    </style>
  </defs>
  <g id="Layer_1-2" data-name="Layer 1">
    <g>
      <g class="cls-5">
        <path class="cls-1" d="M613.81,469.82c-.43,.34-.77,.68-1.19,1.02h0c-2.04,1.79-4.08,3.49-6.12,5.19,.51-.34,.94-.77,1.36-1.11-33.51,28.49-65.4,42.35-91,48.9-.34,.09-.68,.17-.94,.25-10.12,2.64-20.07,4.34-29.85,5.1-6.55,.6-13.78,.43-21.26-.43-2.3-.25-4.59-.51-6.89-.85h-.09c-57.32-8.76-130.04-48.48-130.21-48.65-8.93-5.87-17.69-11.91-26.28-18.12-.26-.17-.43-.6-.43-.94,.68-18.8,3.49-38.02,8.08-57.66,.09-.34,.34-.68,.68-.77,28.83-10.04,59.19,22.2,98.49,52.31,46.1,35.3,104.44,67.78,187.28,26.03,6.04-3.06,12.16-6.46,18.37-10.29Z"/>
      </g>
      <g class="cls-3">
        <path class="cls-1" d="M611,475.01l-15.9,28.75s0,.09-.09,.09c-11.4,17.35-24.58,33.51-39.12,48.31-.09,.09-.26,.25-.34,.34-14.54,14.63-30.45,27.9-47.54,39.55-1.7,1.19-3.49,2.3-5.19,3.4-11.82,7.65-24.07,14.54-36.83,20.58-2.13,1.02-4.25,2.04-6.38,2.98s-4.25,1.87-6.46,2.81c-2.72,1.11-5.44,2.21-8.16,3.32-1.36,.51-2.72,1.02-4.17,1.53-1.36,.51-2.81,1.02-4.17,1.53-2.81,.94-5.53,1.96-8.42,2.89-1.87,.6-3.66,1.19-5.53,1.79-1.28,.43-2.47,.77-3.74,1.11-.51,.17-1.11,.34-1.62,.51-1.7,.51-3.32,.94-4.93,1.36h0c-5.36,1.45-10.72,2.72-16.07,3.91-3.4,.77-6.89,1.36-10.38,2.04-.34,.09-.68,0-.94-.25-61.92-52.05-86.15-112.44-84.28-178.69,0-.85,1.02-1.36,1.7-.85,8.25,5.87,16.58,11.65,25.09,17.26,0,0,.09,0,.09,.09,1.87,1.02,73.65,39.97,130.21,48.65h.09c2.3,.34,4.59,.68,6.89,.85,7.48,.85,14.63,1.02,21.26,.43,9.78-.85,19.73-2.47,29.85-5.1,.34-.09,.6-.17,.94-.25,25.68-6.55,57.49-20.41,91-48.9,.51-.34,.94-.77,1.28-1.11l.09-.09h.09c1.02-.94,2.21,.17,1.7,1.19Z"/>
      </g>
      <g class="cls-3">
        <path class="cls-1" d="M445.07,625.12c2.72-1.11,5.44-2.21,8.16-3.32-1.11,.51-2.21,.94-3.4,1.45-1.53,.6-3.15,1.19-4.76,1.87Z"/>
      </g>
      <g class="cls-3">
        <path class="cls-1" d="M555.55,552.49l.6,.6c-4.25,4.17-8.68,8.25-13.1,12.25-11.57,10.21-23.73,19.56-36.66,28.07-1.02,.77-2.13,1.45-3.23,2.13-11.91,7.65-24.32,14.54-37.08,20.5,12.67-6.04,25-12.93,36.83-20.58,1.7-1.11,3.49-2.21,5.19-3.4,17.09-11.65,33-24.92,47.46-39.55Z"/>
      </g>
      <g class="cls-3">
        <path class="cls-1" d="M612.79,470.75c.34-.34,.68-.6,1.02-.94l-.17,.34h0c-1.45,1.19-2.89,2.38-4.34,3.57,1.11-.94,2.3-1.96,3.49-2.98Z"/>
      </g>
      <g class="cls-2">
        <path class="cls-1" d="M544.58,102.58c-28.92-28.49-63.36-51.28-100.95-66.51-37.51-15.22-78.08-22.96-118.47-22.71s-80.71,8.59-117.79,24.24c-37.17,15.65-71.02,38.7-99.25,67.36-28.24,28.66-50.77,62.77-65.83,99.93-15.14,37.08-22.71,77.22-22.45,117.2,.26,39.97,8.42,79.86,23.98,116.52,15.48,36.74,38.36,70.25,66.68,98.23,21.94,21.69,47.2,39.97,74.59,54.01,.6,.34,1.36,0,1.53-.68,3.15-11.91,6.04-25,7.57-38.36v-.09c2.64-12.84,2.47-26.28,.43-39.89-.6-3.83-1.28-7.65-2.13-11.48,0-.09,0-.17-.09-.25-12.59-56.73-52.99-112.95-55.71-131.32-.09-.6,.34-1.11,.94-1.19,44.31-5.36,98.49,46.35,162.78,92.87,.26,.17,.43,.51,.43,.94-2.21,66.85,21.86,127.74,84.28,180.13,.26,.17,.6,.25,.94,.25,3.49-.68,6.89-1.28,10.38-2.04-23.39,5.1-47.29,7.65-71.19,7.48-42.52-.25-84.96-9.02-124.17-25.51-19.56-8.25-38.27-18.46-55.88-30.36-17.52-11.91-33.85-25.51-48.73-40.57-14.8-15.05-28.24-31.55-39.89-49.24-11.65-17.69-21.52-36.49-29.51-56.05-15.9-39.12-23.98-81.39-23.64-123.49,.26-42.1,8.85-84.11,25.17-122.9,8.16-19.39,18.29-37.93,30.02-55.28,11.82-17.35,25.26-33.51,40.14-48.31,14.88-14.71,31.3-27.98,48.73-39.46,17.44-11.57,36.06-21.35,55.45-29.17C241.64,11.06,283.48,3.15,325.15,3.41c41.67,.25,83.26,8.85,121.54,25,19.14,8.08,37.51,18.03,54.69,29.77,17.18,11.65,33.17,25,47.8,39.72,14.54,14.8,27.64,30.96,39.04,48.22,11.4,17.27,21.09,35.72,28.92,54.86,8.08,19.82,14.12,40.48,17.95,61.49,.51,2.98-3.83,3.91-4.51,.94-5.02-21.09-11.48-45.08-18.03-60.64-15.73-37.34-39.04-71.61-67.95-100.19Z"/>
        <path class="cls-1" d="M638.42,261.86c-3.86-21.2-9.97-42.11-18.14-62.17-7.96-19.47-17.79-38.12-29.23-55.44-11.46-17.36-24.73-33.76-39.46-48.75-14.94-15.03-31.19-28.53-48.29-40.13-17.17-11.73-35.77-21.85-55.28-30.09C409.46,9,366.98,.26,325.18,0c-42.21-.26-84.92,7.95-123.51,23.72-19.66,7.93-38.52,17.85-56.05,29.49-17.7,11.66-34.28,25.08-49.26,39.89-15.02,14.94-28.67,31.36-40.56,48.81-11.98,17.71-22.19,36.51-30.34,55.87C9.06,236.7,.27,279.65,.01,321.97c-.34,42.35,7.92,85.51,23.9,124.81,8.11,19.86,18.15,38.91,29.82,56.63,11.6,17.61,25.16,34.35,40.31,49.76,15.05,15.22,31.62,29.01,49.25,41,26.06,17.71,48.48,27.38,56.46,30.68,44.88,18.55,87.57,22.58,118.97,22.27-.6-2.06-8.7-28.4-35.17-36.66-20.13-6.28-42.62,.47-56.92,17.16-8.21-2.69-16.3-5.7-24.23-9.04-19.16-8.08-37.76-18.19-55.29-30.04-17.26-11.73-33.48-25.24-48.22-40.14-14.83-15.09-28.11-31.48-39.47-48.73-11.43-17.35-21.26-36.01-29.2-55.46-15.64-38.47-23.73-80.72-23.39-122.19,.25-41.45,8.87-83.49,24.91-121.6,7.98-18.95,17.97-37.35,29.7-54.69,11.65-17.09,25.01-33.18,39.72-47.8,14.66-14.49,30.88-27.63,48.22-39.05,17.16-11.38,35.61-21.09,54.86-28.86,37.2-15.21,78.31-23.23,119.01-23.23,.63,0,1.26,0,1.89,0,40.92,.25,82.5,8.8,120.23,24.74,19.1,8.06,37.3,17.97,54.1,29.45,11.31,7.67,22.25,16.2,32.66,25.45-26-22.48-55.81-40.82-87.21-53.53-37.64-15.28-79.02-23.21-119.77-22.96-40.53,.26-81.71,8.73-119.09,24.51-37.18,15.66-71.88,39.21-100.36,68.11-28.48,28.91-51.49,63.85-66.55,101.03-15.11,37.02-22.96,78-22.71,118.51,.26,40.32,8.64,81.06,24.25,117.82,15.45,36.67,38.76,71.01,67.42,99.33,22.24,21.98,47.61,40.35,75.38,54.59,1.19,.64,2.58,.71,3.84,.17,1.7-.72,2.42-2.65,2.57-2.99,.79-1.71,5.66-3.21,23.94-2.07,.52-2.44-.46-4.88-2.39-6.08-2.13-1.33-4.46-.55-4.78-.43-1.78,1.47-6.74,5.15-13.9,5.43-3.72,.15-6.76-.68-8.72-1.4-26.17-13.73-50.1-31.24-71.17-52.06-28.03-27.69-50.83-61.28-65.94-97.14-15.26-35.94-23.46-75.78-23.71-115.21-.25-39.62,7.42-79.69,22.2-115.9,14.73-36.38,37.24-70.55,65.1-98.82,27.85-28.27,61.79-51.3,98.15-66.61,36.57-15.43,76.85-23.72,116.49-23.97,39.81-.25,80.35,7.51,117.17,22.46,36.74,14.88,71.27,37.63,99.84,65.77,28.53,28.2,51.78,62.46,67.21,99.09,5.35,12.72,11.53,33.51,17.85,60.08,.71,3.1,3.57,4.97,6.66,4.35,3.12-.62,5.06-3.47,4.51-6.65Z"/>
        <path class="cls-1" d="M183.32,589.28s-.01,.04-.01,.06c0-.02,0-.04,.01-.06Z"/>
        <path class="cls-1" d="M633.87,262.61s0,0,0,0c0,0,0,0,0,0Z"/>
        <path class="cls-1" d="M189.9,591.03c-.33,1.31-1.29,2.44-2.57,2.99-1.26,.54-2.65,.47-3.84-.17-27.78-14.24-53.14-32.61-75.38-54.59-28.66-28.32-51.98-62.66-67.42-99.33-15.61-36.76-23.99-77.5-24.25-117.82-.26-40.51,7.59-81.49,22.71-118.51,15.06-37.19,38.08-72.13,66.55-101.03,28.47-28.9,63.17-52.45,100.36-68.11,37.38-15.78,78.56-24.25,119.09-24.51,40.75-.25,82.14,7.68,119.77,22.96,31.4,12.72,61.22,31.05,87.21,53.53-10.41-9.26-21.34-17.78-32.66-25.45-16.8-11.48-35-21.38-54.1-29.45-37.73-15.93-79.31-24.49-120.23-24.74-.63,0-1.26,0-1.89,0-40.7,0-81.81,8.02-119.01,23.23-19.25,7.77-37.7,17.47-54.86,28.86-17.34,11.42-33.56,24.56-48.22,39.05-14.71,14.63-28.08,30.71-39.72,47.8-11.73,17.33-21.72,35.73-29.7,54.69-16.04,38.1-24.66,80.15-24.91,121.6-.33,41.47,7.75,83.72,23.39,122.19,7.95,19.44,17.77,38.1,29.2,55.46,11.36,17.25,24.64,33.64,39.47,48.73,14.73,14.9,30.96,28.41,48.22,40.14,17.53,11.85,36.13,21.96,55.29,30.04,14.92,6.28,30.41,11.43,46.2,15.41-18.2-24.28-32.37-53.68-51.65-76.98-1.44,10.37-3.75,21.56-7.05,34.03Z"/>
      </g>
      <g class="cls-4">
        <path class="cls-1" d="M613.81,469.82l-.17,.34h0c-.09,.09-.34,.25-.85,.6,.34-.26,.68-.6,1.02-.94Z"/>
      </g>
      <path class="cls-1" d="M194.6,511.92c-.6-3.83-1.28-7.65-2.13-11.48,.94,3.66,1.62,7.48,2.13,11.48Z"/>
      <path class="cls-1" d="M464.89,528.76c-4-.34-6.38-.77-6.89-.94,2.3,.43,4.59,.68,6.89,.94Z"/>
    </g>
    <g>
      <path class="cls-1" d="M1012.44,126.1c9.46,16.07,20,35.78,31.56,59,11.56,23.22,23.38,47.7,35.46,73.31,12.01,25.61,23.96,51.59,35.78,78.08,11.82,26.42,22.68,50.9,32.52,73.31,9.9-22.41,20.64-46.88,32.2-73.31,11.56-26.42,23.38-52.47,35.46-78.08,12.07-25.61,23.83-50.02,35.46-73.31s22.11-42.93,31.56-59h73.41c3.9,32.14,7.6,66.28,11.05,102.37,3.45,36.09,6.64,73.12,9.46,110.97,2.81,37.85,5.43,75.88,7.79,114.1s4.47,75.57,6.2,111.91h-79.99c-1.72-51.15-3.83-103.75-6.2-157.85s-5.94-106.51-10.73-157.22c-4.73,9.73-10.29,21.34-16.74,34.83-6.45,13.49-13.29,28.18-20.64,44.06-7.35,15.88-14.69,32.2-22.23,49.14-7.54,16.88-14.82,33.26-21.91,49.14-7.09,15.88-13.67,30.63-19.68,44.37s-11.18,25.48-15.46,35.15h-60.57c-4.28-9.73-9.46-21.53-15.46-35.46-6.01-13.93-12.59-28.87-19.68-44.69s-14.37-32.2-21.91-49.14c-7.54-16.88-14.95-33.14-22.23-48.83s-14.18-30.31-20.64-44.06c-6.45-13.75-12.01-25.23-16.74-34.52-4.79,50.71-8.37,103.12-10.73,157.22-2.36,54.1-4.47,106.7-6.2,157.85h-79.99c1.72-36.34,3.77-73.94,6.2-112.85,2.43-38.91,4.98-77.45,7.79-115.67s5.94-75.32,9.46-111.28,7.16-69.1,11.05-99.54h75.32Z"/>
      <path class="cls-1" d="M1747.99,399.44c0,26.17-3.9,50.02-11.63,71.55-7.79,21.53-18.78,39.92-32.97,55.11-14.25,15.19-31.37,27.05-51.43,35.46s-42.1,12.68-66.25,12.68-46.13-4.21-65.93-12.68-36.86-20.27-51.11-35.46c-14.25-15.19-25.3-33.58-33.29-55.11-7.99-21.53-11.95-45.38-11.95-71.55s3.96-49.9,11.95-71.24c7.99-21.34,19.17-39.6,33.61-54.79,14.44-15.19,31.56-26.93,51.43-35.15,19.87-8.22,41.59-12.36,65.29-12.36s45.55,4.14,65.61,12.36c20.06,8.22,37.18,19.96,51.43,35.15,14.25,15.19,25.3,33.45,33.29,54.79,7.99,21.34,11.95,45.06,11.95,71.24Zm-79.86,0c0-32.95-7.22-59-21.72-78.2-14.5-19.21-34.69-28.81-60.69-28.81s-46.19,9.6-60.69,28.81-21.72,45.25-21.72,78.2,7.22,59.75,21.72,79.15,34.69,29.12,60.69,29.12,46.19-9.73,60.69-29.12c14.5-19.39,21.72-45.82,21.72-79.15Z"/>
      <path class="cls-1" d="M2093.75,400.06c0,26.61-3.96,50.59-11.95,71.86-7.99,21.28-19.36,39.6-34.24,54.79-14.89,15.19-32.84,26.8-53.92,34.83-21.08,8.03-44.98,12.05-71.68,12.05s-50.47-1.88-73.92-5.65c-23.45-3.77-42.93-7.97-58.46-12.55V85.93l77.94-12.55V245.35c9.07-4.58,20.12-8.79,33.29-12.55,13.16-3.77,27.66-5.65,43.64-5.65,23.7,0,44.91,4.14,63.63,12.36s34.37,19.96,46.83,35.15c12.46,15.19,22.04,33.45,28.75,54.79s10.09,44.88,10.09,70.61Zm-79.86-1.26c0-32.51-6.58-58.24-19.74-77.26-13.16-19.02-33.99-28.49-62.48-28.49-12.97,0-25.11,1.88-36.54,5.65-11.44,3.77-20.57,7.97-27.54,12.55v190.8c5.62,1.26,12.84,2.39,21.66,3.45,8.82,1.07,19.55,1.57,32.07,1.57,28.88,0,51.56-9.6,67.98-28.81,16.42-19.21,24.6-45.69,24.6-79.46Z"/>
      <path class="cls-1" d="M2412.05,555.4c-15.08,3.77-34.63,7.66-58.65,11.61-24.09,3.95-50.54,5.96-79.29,5.96-27.09,0-49.77-3.83-68.04-11.42-18.27-7.59-32.9-18.14-43.83-31.7s-18.78-29.69-23.51-48.45-7.16-39.35-7.16-61.7V234.05h77.94v173.54c0,35.46,5.24,60.82,15.84,76.01s28.94,22.78,55.2,22.78c9.46,0,19.49-.44,30.03-1.26s18.4-1.88,23.57-3.14V233.99h77.94v321.41h-.06Z"/>
      <path class="cls-1" d="M2590.36,571.72c-23.26-.44-42.55-2.95-57.82-7.59s-27.47-11.3-36.48-19.96-15.4-19.46-19.04-32.32c-3.64-12.87-5.49-27.62-5.49-44.06V85.93l77.94-12.55V453.16c0,9.29,.77,17.13,2.24,23.47,1.53,6.34,4.22,11.74,8.11,16.19,3.9,4.46,9.14,7.85,15.84,10.17,6.71,2.32,15.21,4.14,25.56,5.4l-10.86,63.33Z"/>
      <path class="cls-1" d="M2737.69,225.9c25.75,0,47.41,3.14,65.04,9.48,17.57,6.34,31.62,15.19,42.17,26.61s18.02,25.23,22.55,41.49,6.77,34.08,6.77,53.54v200.84c-12.01,2.51-30.22,5.52-54.5,9.1s-51.69,5.33-82.22,5.33c-20.19,0-38.72-1.88-55.46-5.71-16.74-3.83-31.05-9.92-42.87-18.39s-21.08-19.39-27.73-32.95c-6.64-13.56-9.97-30.19-9.97-50.02s3.77-35.02,11.31-48.14c7.54-13.05,17.76-23.72,30.67-32.01,12.91-8.22,27.86-14.12,44.85-17.7s34.76-5.4,53.22-5.4c8.62,0,17.63,.5,27.09,1.57s19.55,2.82,30.35,5.33v-12.68c0-8.85-1.09-17.26-3.19-25.29-2.17-8.03-5.88-15.06-11.24-21.21s-12.46-10.86-21.27-14.25-19.87-5.08-33.16-5.08c-18.02,0-34.56,1.26-49.58,3.77-15.01,2.51-27.28,5.46-36.74,8.79l-9.58-62.14c9.9-3.33,24.28-6.72,43.12-10.04,18.72-3.14,38.91-4.83,60.37-4.83Zm6.26,285.57c24.09,0,42.42-1.26,54.88-3.77v-84.73c-4.34-1.26-10.54-2.51-18.72-3.77s-17.25-1.88-27.15-1.88c-8.62,0-17.31,.63-26.13,1.88s-16.8,3.58-23.89,6.97c-7.09,3.39-12.78,8.1-17.12,14.25-4.34,6.09-6.45,13.81-6.45,23.03,0,18.14,5.81,30.63,17.44,37.6,11.63,6.97,27.34,10.42,47.15,10.42Z"/>
    </g>
  </g>
</svg>