<svg width="20" height="20" viewBox="0 0 20 20" fill="none" xmlns="http://www.w3.org/2000/svg">
<circle cx="10" cy="10" r="10" fill="#2B3A75" fill-opacity="0.31"/>
<path d="M12.0976 12.098C12.6982 12.4321 13.0353 12.9835 12.9767 13.5498C12.9471 13.8983 12.9621 13.8983 12.5078 13.9563C12.2293 13.9856 10.4565 14 8.65422 14C6.60294 14 4.46351 13.9856 4.30269 13.9419C3.70208 13.7821 4.05372 12.6787 4.8447 12.1561C5.47485 11.764 6.74969 11.1545 7.10134 11.0815C7.58474 10.9798 7.64335 10.675 7.10134 9.76028C6.98413 9.54239 6.85238 8.918 6.83737 8.25041C6.82284 7.17584 7.0132 6.45017 7.96546 6.08734C8.14128 6.02927 8.34665 6 8.53701 6C9.16716 6 9.75324 6.34843 10.0022 6.85668C10.3393 7.53914 10.178 9.32497 9.82638 9.97816C9.40159 10.7187 9.4452 10.951 9.91453 11.0671C10.2076 11.1396 11.1748 11.5898 12.0976 12.098ZM15.3065 11.1833C15.7753 11.43 16.0393 11.8801 15.9952 12.3159C15.9807 12.5775 15.9807 12.5919 15.629 12.6355C15.4532 12.6648 14.53 12.6792 13.446 12.6792C13.2557 12.229 12.889 11.8225 12.3911 11.5614C11.8195 11.2418 11.1458 10.9082 10.6328 10.6904C10.9699 10.5305 11.263 10.4 11.3947 10.3707C11.7609 10.2834 11.805 10.0804 11.3947 9.35424C11.2921 9.18002 11.1748 8.68618 11.1603 8.16353C11.1458 7.32125 11.3361 6.74053 12.069 6.46504C12.2157 6.42137 12.3765 6.39257 12.5233 6.39257C13.0067 6.39257 13.461 6.65412 13.6514 7.06063C13.9003 7.59768 13.7831 8.99141 13.5196 9.51405C13.197 10.0948 13.2266 10.269 13.5928 10.3563C13.8272 10.4144 14.5746 10.7772 15.3069 11.1837L15.3065 11.1833Z" fill="white" fill-opacity="0.8"/>
</svg>
