<svg width="1924" height="317" viewBox="0 0 1924 317" fill="none" xmlns="http://www.w3.org/2000/svg">
<path d="M258.483 150.84L139.742 4.37585C135.012 -1.45861 126.11 -1.45861 121.38 4.37584L2.63811 150.84C-0.87534 155.174 -0.879812 161.374 2.62737 165.713L121.369 312.611C126.1 318.463 135.022 318.463 139.752 312.611L258.494 165.713C262.001 161.374 261.997 155.174 258.483 150.84Z" fill="#89A8F2"/>
<path fill-rule="evenodd" clip-rule="evenodd" d="M252.079 156.032L133.338 9.56766C131.907 7.80295 129.215 7.80294 127.784 9.56766L9.04205 156.032C7.97937 157.343 7.978 159.218 9.03881 160.531L127.781 307.428C129.211 309.198 131.91 309.198 133.341 307.428L252.083 160.531C253.144 159.218 253.142 157.343 252.079 156.032ZM139.742 4.37585L258.483 150.84C261.997 155.174 262.001 161.374 258.494 165.713L139.752 312.611C135.022 318.463 126.1 318.463 121.369 312.611L2.62737 165.713C-0.879812 161.374 -0.87534 155.174 2.63811 150.84L121.38 4.37584C126.11 -1.45861 135.012 -1.45861 139.742 4.37585Z" fill="#373B8A"/>
<path d="M396.929 150.84L278.187 4.37585C273.457 -1.45862 264.556 -1.45862 259.826 4.37584L141.084 150.84C137.57 155.174 137.566 161.374 141.073 165.713L259.815 312.611C264.545 318.463 273.467 318.463 278.198 312.611L396.94 165.713C400.447 161.374 400.442 155.174 396.929 150.84Z" fill="#C8B0F5"/>
<path fill-rule="evenodd" clip-rule="evenodd" d="M390.525 156.032L271.783 9.56766C270.353 7.80294 267.66 7.80294 266.23 9.56766L261.257 5.53606L266.23 9.56767L147.488 156.032C146.425 157.343 146.424 159.218 147.484 160.531L266.226 307.428C267.657 309.198 270.356 309.198 271.786 307.428L390.528 160.531C391.589 159.218 391.588 157.343 390.525 156.032ZM141.084 150.84L259.826 4.37584C264.556 -1.45862 273.457 -1.45862 278.187 4.37585L396.929 150.84C400.442 155.174 400.447 161.374 396.94 165.713L278.198 312.611C273.467 318.463 264.545 318.463 259.815 312.611L141.073 165.713C137.566 161.374 137.57 155.174 141.084 150.84Z" fill="#373B8A"/>
<path d="M531.134 211.858C520.772 211.858 510.852 210.404 501.375 207.498C491.898 204.465 484.379 200.611 478.819 195.936L487.349 176.792C492.656 180.962 499.227 184.437 507.061 187.217C514.896 189.997 522.92 191.387 531.134 191.387C538.084 191.387 543.707 190.629 548.003 189.112C552.299 187.596 555.459 185.574 557.48 183.047C559.502 180.393 560.513 177.424 560.513 174.138C560.513 170.094 559.06 166.872 556.154 164.471C553.247 161.944 549.456 159.985 544.781 158.595C540.232 157.079 535.114 155.689 529.428 154.425C523.868 153.162 518.245 151.709 512.558 150.066C506.998 148.297 501.881 146.085 497.205 143.432C492.656 140.652 488.928 136.987 486.022 132.438C483.116 127.889 481.662 122.076 481.662 115C481.662 107.797 483.558 101.227 487.349 95.2875C491.266 89.222 497.142 84.4202 504.976 80.8821C512.937 77.2175 522.983 75.3853 535.114 75.3853C543.075 75.3853 550.973 76.3962 558.807 78.418C566.642 80.4398 573.465 83.3461 579.278 87.137L571.507 106.281C565.568 102.743 559.439 100.152 553.121 98.5097C546.803 96.7406 540.737 95.8561 534.924 95.8561C528.101 95.8561 522.541 96.6775 518.245 98.3202C514.075 99.9629 510.979 102.111 508.957 104.765C507.061 107.418 506.114 110.451 506.114 113.863C506.114 117.906 507.504 121.192 510.284 123.719C513.19 126.12 516.918 128.016 521.467 129.406C526.142 130.796 531.323 132.186 537.009 133.576C542.696 134.839 548.319 136.292 553.879 137.935C559.565 139.578 564.683 141.726 569.232 144.38C573.908 147.033 577.635 150.635 580.415 155.184C583.322 159.733 584.775 165.482 584.775 172.432C584.775 179.509 582.816 186.079 578.899 192.145C575.108 198.084 569.232 202.886 561.271 206.55C553.31 210.088 543.264 211.858 531.134 211.858Z" fill="#373B8A"/>
<path d="M645.032 211.289C633.912 211.289 625.32 208.446 619.254 202.759C613.189 196.947 610.156 188.417 610.156 177.171V86.3789H633.849V176.602C633.849 181.404 635.05 185.132 637.45 187.785C639.978 190.439 643.453 191.766 647.875 191.766C653.183 191.766 657.605 190.376 661.144 187.596L667.778 204.465C664.998 206.74 661.586 208.446 657.542 209.583C653.499 210.72 649.329 211.289 645.032 211.289ZM593.476 128.458V109.503H660.954V128.458H593.476Z" fill="#373B8A"/>
<path d="M749.628 209.962V189.491L748.302 185.132V149.308C748.302 142.358 746.217 136.987 742.047 133.196C737.877 129.279 731.559 127.321 723.092 127.321C717.406 127.321 711.783 128.205 706.223 129.974C700.789 131.743 696.177 134.207 692.386 137.366L683.098 120.118C688.532 115.948 694.976 112.852 702.432 110.83C710.014 108.682 717.848 107.608 725.935 107.608C740.593 107.608 751.903 111.146 759.864 118.222C767.951 125.172 771.995 135.976 771.995 150.635V209.962H749.628ZM717.785 211.289C710.203 211.289 703.569 210.025 697.883 207.498C692.196 204.844 687.774 201.243 684.615 196.694C681.582 192.019 680.065 186.774 680.065 180.962C680.065 175.275 681.392 170.158 684.046 165.609C686.826 161.06 691.312 157.458 697.504 154.805C703.695 152.151 711.909 150.824 722.144 150.824H751.524V166.556H723.85C715.763 166.556 710.329 167.883 707.549 170.537C704.769 173.064 703.379 176.223 703.379 180.014C703.379 184.31 705.085 187.722 708.497 190.249C711.909 192.777 716.648 194.04 722.713 194.04C728.526 194.04 733.707 192.714 738.256 190.06C742.931 187.406 746.28 183.489 748.302 178.308L752.282 192.524C750.008 198.463 745.901 203.075 739.962 206.361C734.149 209.646 726.757 211.289 717.785 211.289Z" fill="#373B8A"/>
<path d="M821.735 187.406L822.304 157.648L875.187 108.745H903.619L858.697 153.857L846.187 164.282L821.735 187.406ZM802.402 209.962V69.3198H826.095V209.962H802.402ZM878.788 209.962L841.827 164.282L856.801 145.327L907.599 209.962H878.788Z" fill="#373B8A"/>
<path d="M966.407 211.289C955.161 211.289 945.304 209.078 936.838 204.655C928.498 200.106 921.99 193.914 917.315 186.079C912.766 178.245 910.491 169.336 910.491 159.354C910.491 149.245 912.703 140.336 917.125 132.628C921.674 124.793 927.866 118.665 935.701 114.242C943.662 109.819 952.697 107.608 962.806 107.608C972.662 107.608 981.444 109.756 989.152 114.052C996.861 118.349 1002.93 124.414 1007.35 132.249C1011.77 140.083 1013.98 149.308 1013.98 159.922C1013.98 160.933 1013.92 162.07 1013.79 163.334C1013.79 164.598 1013.73 165.798 1013.6 166.935H929.256V151.203H1001.09L991.806 156.131C991.932 150.319 990.732 145.201 988.205 140.778C985.677 136.356 982.202 132.881 977.78 130.353C973.483 127.826 968.492 126.562 962.806 126.562C956.993 126.562 951.875 127.826 947.453 130.353C943.156 132.881 939.744 136.419 937.217 140.968C934.816 145.39 933.616 150.635 933.616 156.7V160.491C933.616 166.556 935.006 171.927 937.786 176.602C940.566 181.278 944.483 184.879 949.538 187.406C954.592 189.934 960.405 191.197 966.976 191.197C972.662 191.197 977.78 190.313 982.329 188.544C986.878 186.774 990.922 183.994 994.46 180.204L1007.16 194.799C1002.61 200.106 996.861 204.213 989.911 207.119C983.087 209.899 975.252 211.289 966.407 211.289Z" fill="#373B8A"/>
<path d="M1120.97 209.962V89.4116H1074.34V77.2807H1181.62V89.4116H1135V209.962H1120.97Z" fill="#373B8A"/>
<path d="M1231.38 210.91C1221.78 210.91 1213.13 208.762 1205.42 204.465C1197.84 200.043 1191.83 194.04 1187.41 186.459C1182.99 178.75 1180.78 169.968 1180.78 160.112C1180.78 150.129 1182.99 141.347 1187.41 133.765C1191.83 126.183 1197.84 120.244 1205.42 115.948C1213 111.652 1221.65 109.503 1231.38 109.503C1241.24 109.503 1249.96 111.652 1257.54 115.948C1265.25 120.244 1271.25 126.183 1275.55 133.765C1279.97 141.347 1282.18 150.129 1282.18 160.112C1282.18 169.968 1279.97 178.75 1275.55 186.459C1271.25 194.04 1265.25 200.043 1257.54 204.465C1249.83 208.762 1241.11 210.91 1231.38 210.91ZM1231.38 198.969C1238.59 198.969 1244.97 197.389 1250.53 194.23C1256.09 190.944 1260.45 186.395 1263.61 180.583C1266.89 174.644 1268.54 167.82 1268.54 160.112C1268.54 152.277 1266.89 145.454 1263.61 139.641C1260.45 133.828 1256.09 129.342 1250.53 126.183C1244.97 122.898 1238.65 121.255 1231.57 121.255C1224.5 121.255 1218.18 122.898 1212.62 126.183C1207.06 129.342 1202.64 133.828 1199.35 139.641C1196.07 145.454 1194.42 152.277 1194.42 160.112C1194.42 167.82 1196.07 174.644 1199.35 180.583C1202.64 186.395 1207.06 190.944 1212.62 194.23C1218.18 197.389 1224.43 198.969 1231.38 198.969Z" fill="#373B8A"/>
<path d="M1352.12 247.682C1343.02 247.682 1334.3 246.355 1325.96 243.701C1317.62 241.047 1310.86 237.257 1305.68 232.328L1312.5 222.093C1317.18 226.263 1322.93 229.548 1329.75 231.949C1336.7 234.477 1344.03 235.74 1351.74 235.74C1364.37 235.74 1373.66 232.771 1379.6 226.832C1385.54 221.019 1388.51 211.921 1388.51 199.537V174.707L1390.4 157.648L1389.08 140.589V110.451H1401.97V197.831C1401.97 215.017 1397.73 227.59 1389.27 235.551C1380.93 243.638 1368.54 247.682 1352.12 247.682ZM1349.65 206.171C1340.17 206.171 1331.65 204.149 1324.06 200.106C1316.48 195.936 1310.48 190.186 1306.06 182.857C1301.76 175.528 1299.61 167.125 1299.61 157.648C1299.61 148.17 1301.76 139.831 1306.06 132.628C1310.48 125.299 1316.48 119.612 1324.06 115.569C1331.65 111.525 1340.17 109.503 1349.65 109.503C1358.5 109.503 1366.46 111.336 1373.53 115C1380.61 118.665 1386.23 124.098 1390.4 131.301C1394.57 138.504 1396.66 147.286 1396.66 157.648C1396.66 168.01 1394.57 176.792 1390.4 183.994C1386.23 191.197 1380.61 196.694 1373.53 200.485C1366.46 204.276 1358.5 206.171 1349.65 206.171ZM1350.98 194.23C1358.31 194.23 1364.82 192.714 1370.5 189.681C1376.19 186.522 1380.67 182.225 1383.96 176.792C1387.24 171.232 1388.89 164.85 1388.89 157.648C1388.89 150.445 1387.24 144.127 1383.96 138.693C1380.67 133.26 1376.19 129.026 1370.5 125.994C1364.82 122.835 1358.31 121.255 1350.98 121.255C1343.78 121.255 1337.27 122.835 1331.46 125.994C1325.77 129.026 1321.28 133.26 1318 138.693C1314.84 144.127 1313.26 150.445 1313.26 157.648C1313.26 164.85 1314.84 171.232 1318 176.792C1321.28 182.225 1325.77 186.522 1331.46 189.681C1337.27 192.714 1343.78 194.23 1350.98 194.23Z" fill="#373B8A"/>
<path d="M1481.68 210.91C1471.32 210.91 1462.22 208.762 1454.39 204.465C1446.55 200.043 1440.43 194.04 1436 186.459C1431.58 178.75 1429.37 169.968 1429.37 160.112C1429.37 150.255 1431.45 141.536 1435.62 133.955C1439.92 126.373 1445.73 120.434 1453.06 116.137C1460.52 111.715 1468.86 109.503 1478.08 109.503C1487.43 109.503 1495.71 111.652 1502.91 115.948C1510.24 120.118 1515.99 126.057 1520.16 133.765C1524.33 141.347 1526.42 150.129 1526.42 160.112C1526.42 160.744 1526.35 161.439 1526.23 162.197C1526.23 162.829 1526.23 163.524 1526.23 164.282H1439.6V154.236H1519.02L1513.72 158.216C1513.72 151.014 1512.14 144.632 1508.98 139.072C1505.94 133.386 1501.77 128.963 1496.47 125.804C1491.16 122.645 1485.03 121.066 1478.08 121.066C1471.26 121.066 1465.13 122.645 1459.7 125.804C1454.26 128.963 1450.03 133.386 1447 139.072C1443.96 144.759 1442.45 151.266 1442.45 158.595V160.68C1442.45 168.262 1444.09 174.959 1447.38 180.772C1450.79 186.459 1455.46 190.944 1461.4 194.23C1467.47 197.389 1474.35 198.969 1482.06 198.969C1488.13 198.969 1493.75 197.894 1498.93 195.746C1504.24 193.598 1508.79 190.313 1512.58 185.89L1520.16 194.609C1515.74 199.916 1510.18 203.96 1503.48 206.74C1496.91 209.52 1489.64 210.91 1481.68 210.91Z" fill="#373B8A"/>
<path d="M1585.27 210.91C1575.92 210.91 1568.72 208.383 1563.66 203.328C1558.61 198.274 1556.08 191.134 1556.08 181.909V88.4639H1569.54V181.151C1569.54 186.964 1570.99 191.45 1573.9 194.609C1576.93 197.768 1581.23 199.348 1586.79 199.348C1592.73 199.348 1597.66 197.642 1601.57 194.23L1606.31 203.897C1603.66 206.298 1600.44 208.067 1596.65 209.204C1592.98 210.341 1589.19 210.91 1585.27 210.91ZM1538.27 121.634V110.451H1599.87V121.634H1538.27Z" fill="#373B8A"/>
<path d="M1681.61 109.503C1689.7 109.503 1696.77 111.083 1702.84 114.242C1709.03 117.275 1713.83 121.95 1717.24 128.268C1720.78 134.586 1722.55 142.547 1722.55 152.151V209.962H1709.09V153.478C1709.09 142.99 1706.44 135.092 1701.13 129.785C1695.95 124.351 1688.62 121.634 1679.14 121.634C1672.07 121.634 1665.88 123.087 1660.57 125.994C1655.39 128.774 1651.34 132.881 1648.44 138.314C1645.66 143.621 1644.27 150.066 1644.27 157.648V209.962H1630.81V69.3198H1644.27V137.746L1641.61 132.628C1644.77 125.425 1649.83 119.802 1656.78 115.758C1663.73 111.588 1672 109.503 1681.61 109.503Z" fill="#373B8A"/>
<path d="M1801.17 210.91C1790.81 210.91 1781.71 208.762 1773.88 204.465C1766.04 200.043 1759.91 194.04 1755.49 186.459C1751.07 178.75 1748.86 169.968 1748.86 160.112C1748.86 150.255 1750.94 141.536 1755.11 133.955C1759.41 126.373 1765.22 120.434 1772.55 116.137C1780 111.715 1788.34 109.503 1797.57 109.503C1806.92 109.503 1815.2 111.652 1822.4 115.948C1829.73 120.118 1835.48 126.057 1839.65 133.765C1843.82 141.347 1845.9 150.129 1845.9 160.112C1845.9 160.744 1845.84 161.439 1845.71 162.197C1845.71 162.829 1845.71 163.524 1845.71 164.282H1759.09V154.236H1838.51L1833.2 158.216C1833.2 151.014 1831.62 144.632 1828.46 139.072C1825.43 133.386 1821.26 128.963 1815.95 125.804C1810.65 122.645 1804.52 121.066 1797.57 121.066C1790.74 121.066 1784.62 122.645 1779.18 125.804C1773.75 128.963 1769.52 133.386 1766.48 139.072C1763.45 144.759 1761.93 151.266 1761.93 158.595V160.68C1761.93 168.262 1763.58 174.959 1766.86 180.772C1770.27 186.459 1774.95 190.944 1780.89 194.23C1786.95 197.389 1793.84 198.969 1801.55 198.969C1807.61 198.969 1813.24 197.894 1818.42 195.746C1823.73 193.598 1828.27 190.313 1832.07 185.89L1839.65 194.609C1835.22 199.916 1829.66 203.96 1822.97 206.74C1816.4 209.52 1809.13 210.91 1801.17 210.91Z" fill="#373B8A"/>
<path d="M1873.29 209.962V110.451H1886.18V137.556L1884.86 132.817C1887.64 125.236 1892.31 119.486 1898.88 115.569C1905.45 111.525 1913.6 109.503 1923.33 109.503V122.582C1922.83 122.582 1922.32 122.582 1921.82 122.582C1921.31 122.456 1920.81 122.392 1920.3 122.392C1909.81 122.392 1901.6 125.615 1895.66 132.059C1889.72 138.377 1886.75 147.412 1886.75 159.164V209.962H1873.29Z" fill="#373B8A"/>
</svg>
