<svg width="1001" height="1295" viewBox="0 0 1001 1295" fill="none" xmlns="http://www.w3.org/2000/svg">
<g clip-path="url(#clip0_12655_5749)">
<path d="M1000.37 499.867C1000.37 776.201 776.149 999.54 500.842 999.54C225.534 999.54 0.368591 776.201 0.368591 499.867C0.368591 223.533 224.588 0.195015 499.896 0.195015C775.203 0.195015 1000.37 224.48 1000.37 499.867Z" fill="#DD1438"/>
<path d="M786.556 259.494C774.257 229.211 754.39 201.767 731.684 180.001C708.032 157.289 679.65 140.254 650.321 127.952C630.454 120.381 610.586 114.703 589.773 112.81C515.033 102.4 436.509 125.113 379.744 181.894C313.519 248.138 290.813 343.72 320.142 433.623V434.569C302.166 445.925 285.137 459.174 270 475.262C247.294 498.921 228.372 527.311 217.02 557.595C204.721 588.824 199.99 620.054 199.99 653.176C199.99 685.352 206.613 718.474 219.858 747.811C232.157 778.094 252.024 805.538 274.73 827.304C298.382 850.017 326.764 867.051 356.092 879.353C385.421 891.656 417.587 896.388 449.754 896.388C445.023 896.388 440.293 896.388 436.509 896.388C503.68 900.173 572.743 875.568 623.831 824.465C690.057 758.221 712.762 662.639 684.38 574.629C704.248 563.273 722.223 549.077 737.36 532.043C760.066 508.384 778.987 479.994 790.34 449.711C802.639 418.481 807.37 387.252 807.37 354.129C807.37 321.954 799.801 288.831 786.556 259.494ZM570.851 277.475C568.959 269.904 568.013 261.387 568.013 253.816C576.528 255.709 585.988 257.602 594.503 261.387C606.802 266.119 617.209 274.636 624.777 284.1C632.346 293.563 639.915 303.973 643.699 316.275C647.483 328.578 649.375 339.934 649.375 352.237C647.483 374.949 638.022 396.715 621.939 412.803L570.851 277.475ZM629.508 431.73C631.4 429.837 632.346 428.891 634.238 426.998C644.645 416.588 651.267 404.286 656.944 391.037C662.62 377.788 663.566 362.647 663.566 349.398C663.566 334.256 659.782 321.954 654.106 309.651C648.429 297.348 638.968 286.939 630.454 277.475C620.993 268.958 609.64 261.387 597.341 257.602C588.827 254.763 579.366 252.87 569.905 252.87C569.905 236.782 574.635 221.641 581.258 208.392C591.665 210.284 603.018 214.07 612.478 218.801C631.4 227.319 645.591 238.675 658.836 251.924C671.135 267.065 681.542 282.207 688.164 300.188C694.787 317.222 697.625 336.149 697.625 355.076C697.625 374.003 693.841 392.93 685.326 408.071C678.704 425.106 668.297 440.247 655.052 451.603C650.321 455.389 646.537 459.174 640.861 462.013L629.508 431.73ZM647.483 479.048C654.106 474.316 660.728 468.638 667.351 462.013C680.596 446.872 692.895 428.891 699.517 409.964C708.032 390.091 709.924 369.271 709.924 350.344C709.924 330.471 705.194 310.597 696.679 291.67C689.11 274.636 676.811 256.655 662.62 243.407C647.483 230.158 632.346 219.748 613.425 213.123C603.018 209.338 591.665 207.445 581.258 205.553C585.988 197.035 591.665 189.465 598.287 181.894C603.964 176.216 609.64 171.484 616.263 167.699C620.993 169.591 625.723 171.484 630.454 173.377C653.16 182.84 673.973 197.035 691.949 215.962C708.978 232.997 722.223 256.655 731.684 278.421C741.145 302.08 744.929 327.632 744.929 351.29C743.983 378.734 738.306 402.393 728.846 425.106C719.385 445.925 705.194 465.799 687.218 483.779C677.758 493.243 668.297 500.814 657.89 507.438L647.483 479.048ZM387.313 837.714C383.529 835.821 379.744 834.875 375.96 832.982C353.254 823.519 332.441 809.323 314.465 790.396C297.436 773.362 284.191 749.703 274.73 727.937C265.269 704.279 261.485 678.727 261.485 655.068C262.431 629.517 268.108 605.858 277.568 583.146C287.029 562.326 301.22 542.453 319.196 524.472C327.71 515.955 337.171 508.384 346.632 502.706L357.038 531.097C351.362 535.828 344.74 540.56 340.009 546.238C326.764 561.38 314.465 579.361 307.843 598.288C299.328 618.161 297.436 638.981 297.436 657.908C297.436 677.781 302.166 697.654 310.681 716.581C318.249 733.615 330.548 751.596 344.74 764.845C359.877 778.094 375.014 788.504 393.935 795.128C403.396 798.914 412.857 800.806 423.264 802.699C418.533 811.216 412.857 818.787 406.234 825.411C400.558 829.197 393.935 833.929 387.313 837.714ZM394.881 790.396C375.96 781.879 361.769 770.523 348.524 757.274C336.225 742.133 325.818 726.991 319.196 709.01C312.573 691.976 309.735 673.049 309.735 654.122C309.735 635.195 313.519 616.268 322.034 601.127C328.656 584.092 339.063 568.951 352.308 557.595C356.092 554.755 359.877 550.97 363.661 548.131L375.014 578.414C374.068 579.361 373.122 580.307 372.176 581.253C361.769 591.663 355.146 603.966 349.47 617.214C343.793 630.463 342.847 645.605 342.847 658.854C342.847 673.995 346.632 686.298 352.308 698.601C357.985 710.903 367.445 721.313 375.96 730.776C385.421 739.294 396.774 746.864 409.073 750.65C416.641 753.489 426.102 754.435 434.617 755.382C433.67 771.47 429.886 786.611 422.318 799.86C413.803 797.021 404.342 794.182 394.881 790.396ZM433.67 729.83C435.563 737.401 435.563 745.918 435.563 753.489C427.048 751.596 419.479 749.703 411.911 745.918C399.612 741.186 389.205 732.669 381.636 723.206C374.068 713.742 366.499 703.332 362.715 691.03C357.985 678.727 357.038 667.371 357.038 655.068C357.985 633.302 367.445 611.536 382.582 596.395L433.67 729.83ZM280.407 823.519C257.701 800.806 241.617 774.309 229.319 744.972C218.912 717.528 213.235 685.352 213.235 654.122C215.127 623.839 221.75 592.609 233.103 565.165C245.402 536.775 263.377 512.17 285.137 490.404C298.382 477.155 312.573 466.745 328.656 457.281L337.171 479.048C324.872 487.565 312.573 496.082 303.112 507.438C284.191 527.311 270 550.024 260.539 575.575C251.078 601.127 247.294 627.624 247.294 654.122C249.186 680.62 253.916 707.118 264.323 730.776C274.73 754.435 290.813 777.148 309.735 794.182C328.656 811.216 350.416 826.358 375.014 835.821C378.798 836.768 381.636 838.66 385.421 839.607C369.337 849.07 352.308 853.802 333.387 854.748C326.764 854.748 320.142 853.802 313.519 852.856C301.22 843.392 290.813 833.929 280.407 823.519ZM773.311 442.14C761.012 470.53 743.037 495.135 721.277 516.901C708.032 530.15 691.949 542.453 674.919 551.916L667.351 531.097C680.596 522.58 693.841 513.116 704.248 500.814C723.169 480.94 737.36 458.228 746.821 432.676C756.282 407.125 760.066 380.627 760.066 354.129C758.174 327.632 753.443 301.134 743.037 277.475C732.63 253.816 716.547 231.104 697.625 214.07C678.704 197.035 656.944 181.894 632.346 172.43C627.616 170.538 622.885 169.591 619.101 167.699C641.807 154.45 668.297 150.664 693.841 155.396C706.14 163.913 717.493 173.377 726.953 184.733C749.659 207.445 765.742 233.943 778.041 263.28C788.448 290.724 794.125 322.9 794.125 354.129C791.286 383.466 784.664 414.696 773.311 442.14Z" fill="white"/>
<path d="M34.4272 1289.12C20.2361 1285.34 8.88326 1279.66 0.368591 1273.03L15.5058 1239.91C24.0204 1245.59 33.4812 1251.27 44.8341 1254.11C56.1869 1257.89 67.5398 1259.79 78.8927 1259.79C91.1917 1259.79 100.652 1257.89 107.275 1254.11C112.951 1250.32 116.736 1245.59 116.736 1238.97C116.736 1234.23 114.844 1230.45 111.059 1227.61C107.275 1224.77 102.545 1221.93 96.8681 1220.04C91.1917 1218.15 83.6231 1216.25 74.1624 1214.36C59.0252 1210.58 47.6723 1207.74 38.2115 1203.95C28.7508 1200.17 21.1822 1194.49 14.5597 1186.92C7.93718 1179.35 4.15289 1168.94 4.15289 1155.69C4.15289 1144.33 6.99111 1133.92 13.6136 1125.4C19.2901 1115.94 28.7508 1109.32 41.0498 1103.64C53.3487 1097.96 68.4859 1096.07 85.5152 1096.07C97.8142 1096.07 110.113 1097.96 121.466 1100.8C132.819 1103.64 143.226 1108.37 152.686 1113.1L138.495 1147.17C120.52 1136.76 102.545 1132.03 85.5152 1132.03C73.2163 1132.03 63.7555 1133.92 58.0791 1137.71C52.4027 1141.49 49.5644 1147.17 49.5644 1153.79C49.5644 1160.42 53.3487 1165.15 59.9712 1168.94C66.5938 1171.78 77.0006 1175.56 91.1917 1178.4C106.329 1182.19 117.682 1185.02 127.142 1188.81C136.603 1192.6 144.172 1198.27 150.794 1204.9C157.417 1212.47 161.201 1222.88 161.201 1235.18C161.201 1246.54 158.363 1256 151.74 1265.46C145.118 1274.93 136.603 1281.55 124.304 1287.23C112.005 1292.91 96.8681 1294.8 79.8388 1294.8C63.7555 1294.8 48.6184 1292.91 34.4272 1289.12Z" fill="#131722"/>
<path d="M213.235 1272.09C198.098 1256.95 190.529 1235.18 190.529 1206.79V1098.91H234.995V1204.9C234.995 1238.97 249.186 1256.95 277.568 1256.95C291.759 1256.95 302.166 1253.16 309.735 1244.64C317.303 1236.13 321.088 1222.88 321.088 1205.84V1099.85H365.553V1207.74C365.553 1236.13 357.984 1257.89 342.847 1273.03C327.71 1288.18 305.95 1295.75 278.514 1295.75C250.132 1294.8 228.372 1287.23 213.235 1272.09Z" fill="#131722"/>
<path d="M526.386 1107.42C538.685 1113.1 549.091 1121.62 555.714 1132.03C562.336 1142.44 566.121 1154.74 566.121 1168.94C566.121 1183.13 562.336 1195.43 555.714 1205.84C549.091 1216.25 539.631 1224.77 526.386 1230.45C514.087 1236.13 498.95 1238.97 481.92 1238.97H443.131V1291.96H398.666V1099.85H481.92C498.95 1098.91 514.087 1101.75 526.386 1107.42ZM510.302 1193.54C516.925 1187.86 520.709 1179.35 520.709 1168.94C520.709 1158.53 516.925 1150.01 510.302 1144.33C503.68 1138.65 493.273 1135.81 480.028 1135.81H444.077V1203H480.028C492.327 1202.06 502.734 1199.22 510.302 1193.54Z" fill="#131722"/>
<path d="M720.331 1291.96L683.434 1238.02H681.542H642.753V1291.96H598.287V1099.85H681.542C698.571 1099.85 713.708 1102.69 726.007 1108.37C738.306 1114.05 747.767 1122.57 755.336 1132.98C761.958 1143.38 765.742 1155.69 765.742 1169.88C765.742 1184.08 761.958 1196.38 755.336 1206.79C748.713 1217.2 738.306 1224.77 726.007 1230.45L769.527 1291.96H720.331ZM708.978 1144.33C702.355 1138.65 691.949 1135.81 678.704 1135.81H642.753V1203H678.704C691.949 1203 702.355 1200.17 708.978 1194.49C715.601 1188.81 719.385 1180.29 719.385 1169.88C719.385 1158.53 715.601 1150.01 708.978 1144.33Z" fill="#131722"/>
<path d="M936.036 1250.32H847.105L830.075 1291.96H784.664L870.757 1099.85H915.222L1001.31 1291.96H954.957L936.036 1250.32ZM921.845 1216.25L891.57 1142.44L861.296 1216.25H921.845Z" fill="#131722"/>
</g>
<defs>
<clipPath id="clip0_12655_5749">
<rect width="1000" height="1294.61" fill="white" transform="translate(0.368591 0.195015)"/>
</clipPath>
</defs>
</svg>
