<svg width="31" height="19" viewBox="0 0 31 19" fill="none" xmlns="http://www.w3.org/2000/svg">
<path d="M16.5 19C17.3284 19 18 18.3284 18 17.5C18 16.6716 17.3284 16 16.5 16C15.6716 16 15 16.6716 15 17.5C15 18.3284 15.6716 19 16.5 19Z" fill="white" fill-opacity="0.4"/>
<path d="M25.5 19C26.3284 19 27 18.3284 27 17.5C27 16.6716 26.3284 16 25.5 16C24.6716 16 24 16.6716 24 17.5C24 18.3284 24.6716 19 25.5 19Z" fill="white" fill-opacity="0.4"/>
<path d="M26.0502 14.7352H15.0223C14.4943 14.7352 14.0284 14.3904 13.874 13.8854L10.3615 2.4016H7.41784C6.75466 2.4016 6.21704 1.86399 6.21704 1.2008C6.21704 0.537616 6.75466 0 7.41784 0H11.2498C11.7778 0 12.2437 0.344801 12.3981 0.849481L15.9109 12.3336H25.2521L27.8709 6.10178H18.5479C17.8847 6.10178 17.3471 5.56417 17.3471 4.90098C17.3471 4.2378 17.8847 3.70018 18.5479 3.70018H29.6776C30.0797 3.70018 30.4554 3.90157 30.6777 4.23643C30.9 4.57162 30.9405 4.99568 30.7847 5.36621L27.1569 13.9996C26.9696 14.4453 26.5336 14.7352 26.0502 14.7352Z" fill="white" fill-opacity="0.4"/>
<path d="M8.72576 14.7356H2.9801C2.31691 14.7356 1.7793 14.198 1.7793 13.5348C1.7793 12.8716 2.31691 12.334 2.9801 12.334H8.72576C9.38894 12.334 9.92656 12.8716 9.92656 13.5348C9.92656 14.198 9.38894 14.7356 8.72576 14.7356Z" fill="white" fill-opacity="0.4"/>
<path d="M6.94646 9.75316H1.2008C0.537616 9.75316 0 9.21555 0 8.55236C0 7.88918 0.537616 7.35156 1.2008 7.35156H6.94646C7.60965 7.35156 8.14726 7.88918 8.14726 8.55236C8.14726 9.21555 7.60965 9.75316 6.94646 9.75316Z" fill="white" fill-opacity="0.4"/>
</svg>
