<svg width="17" height="17" viewBox="0 0 17 17" fill="none" xmlns="http://www.w3.org/2000/svg">
<path d="M14.7052 8.28238C14.7052 4.69191 11.7943 1.78096 8.20381 1.78096C4.61334 1.78096 1.70239 4.69191 1.70239 8.28238C1.70239 11.8728 4.61334 14.7838 8.20381 14.7838C11.7943 14.7838 14.7052 11.8728 14.7052 8.28238Z" stroke="white" stroke-opacity="0.8" stroke-width="1.00189" stroke-miterlimit="10"/>
<path d="M14.1302 5.66079C13.6282 5.66391 13.6776 6.59018 13.052 6.15315C12.8198 5.99122 12.6769 5.75582 12.3852 5.68423C12.1304 5.62171 11.8694 5.68673 11.6178 5.73019C11.3317 5.77958 10.9925 5.80178 10.7756 6.01842C10.5658 6.22693 10.4548 6.50672 10.2316 6.71648C9.79992 7.12288 9.61767 7.56647 9.89714 8.14106C10.166 8.69344 10.7284 8.99324 11.3352 8.95385C11.9313 8.91415 12.5506 8.5684 12.5334 9.43465C12.5272 9.74101 12.5912 9.95358 12.6853 10.2384C12.7726 10.501 12.7666 10.7554 12.7866 11.0265C12.8235 11.5329 12.9167 12.1006 13.168 12.548L13.6369 11.8865C13.6948 11.8046 13.8157 11.6898 13.8445 11.5932C13.8955 11.4222 13.7951 11.1284 13.7835 10.9368C13.772 10.7451 13.7776 10.551 13.7482 10.3594C13.707 10.0908 13.5481 9.83917 13.5263 9.57376C13.4859 9.07952 13.5763 8.685 13.1955 8.27173C12.8279 7.87315 12.2889 7.77749 11.7741 7.85845C11.5146 7.89909 10.4702 8.06603 10.8894 7.473C10.9722 7.3564 11.117 7.26074 11.2101 7.14976C11.2911 7.05316 11.3614 6.8756 11.4565 6.80026C11.5515 6.72492 11.9879 6.63833 12.1129 6.67678C12.238 6.71523 12.3683 6.89561 12.4768 6.97564C12.6772 7.1266 12.9111 7.22697 13.1586 7.26824C13.5857 7.33076 14.4785 7.08255 14.4716 6.53485C14.4704 6.27226 14.2265 5.9065 14.1302 5.66079Z" fill="white" fill-opacity="0.8"/>
<path d="M9.18722 10.1667C9.02062 9.46528 8.0676 9.23085 7.55374 8.85046C7.25836 8.63166 6.99549 8.29377 6.60759 8.26627C6.4288 8.25345 6.27908 8.29221 6.10186 8.24626C5.93932 8.20438 5.8118 8.11686 5.63863 8.13968C5.31512 8.18219 5.11102 8.52789 4.76344 8.481C4.43368 8.43662 4.09392 8.05091 4.0189 7.73678C3.92263 7.33294 4.24208 7.20197 4.58434 7.16603C4.72718 7.15103 4.88753 7.13477 5.02475 7.18697C5.20541 7.25417 5.29074 7.43109 5.45297 7.52048C5.7571 7.68708 5.81867 7.42077 5.7721 7.15071C5.7024 6.74625 5.62113 6.58121 5.98183 6.30303C6.23189 6.11111 6.44568 5.97233 6.40567 5.62757C6.38192 5.42503 6.27096 5.33344 6.37442 5.13184C6.45287 4.97837 6.66823 4.8399 6.80857 4.74832C7.17084 4.51201 8.36048 4.52952 7.87443 3.86812C7.73159 3.67402 7.46809 3.32707 7.21804 3.27956C6.90547 3.22048 6.76669 3.56931 6.54883 3.72309C6.32378 3.88219 5.88556 4.06285 5.6602 3.81686C5.35701 3.48585 5.86118 3.37708 5.97277 3.14609C6.08435 2.9151 5.71427 2.47845 5.51611 2.3678L4.58434 3.41271C4.55757 3.58771 4.56689 3.76633 4.61172 3.93758C4.65655 4.10884 4.73595 4.26912 4.84502 4.40855C5.03037 4.64704 5.32544 4.72362 5.33888 5.04932C5.35201 5.36189 5.30325 5.52192 5.09883 5.74166C5.01037 5.83543 4.94786 5.96858 4.85784 6.05641C4.7475 6.16362 4.78845 6.1308 4.61622 6.16019C4.2924 6.21488 4.01672 6.29928 3.70384 6.38555C3.18247 6.52964 3.13434 5.67789 2.89678 5.34376L2.11536 5.97483C2.10693 6.07829 2.24352 6.26865 2.28071 6.38117C2.4942 7.02412 2.92492 7.52142 3.2031 8.13655C3.49598 8.78794 4.2824 8.60728 4.62966 9.17803C4.93785 9.68439 4.60872 10.3255 4.8394 10.8556C5.00693 11.2404 5.40202 11.3244 5.67458 11.6057C5.95308 11.8899 5.94714 12.2787 5.98965 12.6485C6.03759 13.0834 6.11539 13.5145 6.22251 13.9388C6.26033 14.0853 6.29503 14.2791 6.39536 14.4001C6.46412 14.4832 6.70011 14.5548 6.60478 14.5823C6.73793 14.6042 6.97517 14.7286 7.08614 14.6373C7.23242 14.5173 7.19335 14.1479 7.21866 13.9809C7.29462 13.484 7.54342 12.9979 7.87912 12.626C8.21076 12.259 8.66523 12.0105 8.94529 11.5945C9.21816 11.1888 9.30037 10.6415 9.18722 10.1667ZM8.14355 10.9894C7.95601 11.3241 7.53842 11.5482 7.26993 11.8142C7.1971 11.8864 7.04206 12.1365 6.95079 12.0824C6.88547 12.0437 6.86327 11.7192 6.83921 11.6448C6.71504 11.2702 6.47801 10.9432 6.16062 10.7087C6.06279 10.6346 5.82023 10.5383 5.76428 10.4367C5.70177 10.3264 5.75803 10.066 5.76022 9.94601C5.76366 9.77097 5.68395 9.47997 5.72709 9.32087C5.7771 9.13739 5.68083 9.24804 5.84493 9.21179C5.93151 9.19241 6.28909 9.25523 6.39692 9.27774C6.56821 9.31337 6.66261 9.41996 6.79763 9.52779C7.15271 9.81254 7.54374 10.0329 7.94163 10.2511C8.24983 10.4217 8.34047 10.6377 8.14355 10.9894Z" fill="white" fill-opacity="0.8"/>
<path d="M5.96753 2.37784C6.1158 2.52266 6.2553 2.69407 6.47645 2.70846C6.68571 2.72254 6.88309 2.60931 7.06576 2.75163C7.26846 2.90803 7.41453 3.10603 7.68354 3.15483C7.94379 3.20206 8.21936 3.05004 8.2838 2.78385C8.34636 2.53017 8.21154 2.25428 8.20341 1.99966C8.20341 1.96432 8.22249 1.80729 8.19809 1.7807C8.17995 1.76069 8.02856 1.78321 8.00541 1.78383C7.83587 1.78884 7.66675 1.80051 7.49805 1.81887C6.88304 1.88543 6.28073 2.03975 5.70947 2.27711C5.78548 2.32966 5.88089 2.35062 5.96753 2.37784Z" fill="white" fill-opacity="0.8"/>
<path d="M11.3473 4.14071C11.615 4.14071 11.8869 4.02086 11.8005 3.71116C11.7279 3.4516 11.6043 3.16997 11.3034 3.31C11.112 3.39894 10.8408 3.62538 10.8184 3.84993C10.7928 4.10476 11.1688 4.14071 11.3473 4.14071Z" fill="white" fill-opacity="0.8"/>
<path d="M11.1309 5.47785C11.4021 5.64019 11.8043 5.56387 12.0089 5.33208C12.1687 5.15066 12.2629 4.83567 12.5503 4.83599C12.6769 4.83572 12.7985 4.88528 12.8888 4.97393C13.0076 5.09686 12.9842 5.21228 13.0095 5.36618C13.0661 5.71182 13.4368 5.38589 13.5335 5.25201C13.596 5.16474 13.6808 5.03524 13.6523 4.92169C13.626 4.81566 13.5022 4.70274 13.4471 4.60546C13.2864 4.32394 13.154 3.99644 12.9132 3.76903C12.6814 3.55007 12.3964 3.57541 12.1765 3.80282C11.9964 3.99049 11.7871 4.13907 11.6639 4.36742C11.5769 4.52788 11.479 4.60452 11.3029 4.64612C11.2059 4.66895 11.0952 4.6774 11.0139 4.74246C10.7874 4.92076 10.9163 5.34898 11.1309 5.47785Z" fill="white" fill-opacity="0.8"/>
</svg>
