<svg width="12" height="18" viewBox="0 0 12 18" fill="none" xmlns="http://www.w3.org/2000/svg">
<path d="M7.63281 3.69531V3.40625H11.3828V3.69531H10.9844C10.5677 3.69531 10.2474 3.86979 10.0234 4.21875C9.91406 4.38021 9.85938 4.75521 9.85938 5.34375V9.64062C9.85938 10.7031 9.7526 11.5286 9.53906 12.1172C9.33073 12.7005 8.91667 13.2031 8.29688 13.625C7.68229 14.0417 6.84375 14.25 5.78125 14.25C4.625 14.25 3.7474 14.0495 3.14844 13.6484C2.54948 13.2474 2.125 12.7083 1.875 12.0312C1.70833 11.5677 1.625 10.6979 1.625 9.42188V5.28125C1.625 4.63021 1.53385 4.20312 1.35156 4C1.17448 3.79688 0.885417 3.69531 0.484375 3.69531H0.0859375V3.40625H4.66406V3.69531H4.25781C3.82031 3.69531 3.50781 3.83333 3.32031 4.10938C3.1901 4.29688 3.125 4.6875 3.125 5.28125V9.89844C3.125 10.3099 3.16146 10.7812 3.23438 11.3125C3.3125 11.8438 3.45052 12.2578 3.64844 12.5547C3.84635 12.8516 4.13021 13.0964 4.5 13.2891C4.875 13.4818 5.33333 13.5781 5.875 13.5781C6.56771 13.5781 7.1875 13.4271 7.73438 13.125C8.28125 12.8229 8.65365 12.4375 8.85156 11.9688C9.05469 11.4948 9.15625 10.6953 9.15625 9.57031V5.28125C9.15625 4.61979 9.08333 4.20573 8.9375 4.03906C8.73438 3.8099 8.43229 3.69531 8.03125 3.69531H7.63281Z" fill="white"/>
<rect y="9" width="11" height="1" fill="white"/>
</svg>
