<svg width="17" height="17" viewBox="0 0 17 17" fill="none" xmlns="http://www.w3.org/2000/svg">
<path d="M13.5347 4.71069H3.53255C2.70395 4.71069 2.03223 5.38241 2.03223 6.21102V12.2123C2.03223 13.0409 2.70395 13.7127 3.53255 13.7127H13.5347C14.3633 13.7127 15.0351 13.0409 15.0351 12.2123V6.21102C15.0351 5.38241 14.3633 4.71069 13.5347 4.71069Z" stroke="white" stroke-width="1.00189" stroke-linejoin="round"/>
<path d="M13.3897 4.71073V3.77303C13.3896 3.54305 13.3388 3.31591 13.2408 3.10783C13.1429 2.89975 13.0002 2.71586 12.823 2.56928C12.6458 2.42269 12.4384 2.31702 12.2156 2.25982C11.9929 2.20261 11.7602 2.19527 11.5343 2.23832L3.3025 3.64331C2.94503 3.71144 2.62253 3.90218 2.39063 4.18263C2.15874 4.46309 2.03198 4.81568 2.03223 5.17959V6.71117" stroke="white" stroke-width="1.00189" stroke-linejoin="round"/>
<path d="M12.0344 10.2124C11.8364 10.2124 11.6429 10.1537 11.4783 10.0437C11.3137 9.93368 11.1854 9.77735 11.1096 9.59445C11.0339 9.41155 11.0141 9.21029 11.0527 9.01613C11.0913 8.82196 11.1866 8.64361 11.3266 8.50362C11.4666 8.36364 11.645 8.2683 11.8391 8.22968C12.0333 8.19106 12.2346 8.21088 12.4175 8.28664C12.6004 8.3624 12.7567 8.4907 12.8667 8.6553C12.9767 8.81991 13.0354 9.01343 13.0354 9.2114C13.0354 9.47687 12.9299 9.73147 12.7422 9.91918C12.5545 10.1069 12.2999 10.2124 12.0344 10.2124Z" fill="white"/>
</svg>
