<svg width="976" height="200" viewBox="0 0 976 200" fill="none" xmlns="http://www.w3.org/2000/svg">
<path d="M100 200C155.228 200 200 155.228 200 100C200 44.7715 155.228 0 100 0C44.7715 0 0 44.7715 0 100C0 155.228 44.7715 200 100 200Z" fill="white"/>
<path d="M70.8235 126.519C65.6206 126.741 60.4863 125.267 56.194 122.318C54.3397 120.902 52.8584 119.055 51.8781 116.937C50.8978 114.82 50.448 112.496 50.5678 110.165C50.5907 108.808 50.7162 107.453 50.9432 106.115C51.5935 102.508 52.5186 98.1826 53.7186 93.1367C57.1197 79.3826 65.8968 72.5055 80.0498 72.5055C83.5972 72.4474 87.1193 73.1112 90.4022 74.4564C93.3163 75.5985 95.8237 77.5836 97.6039 80.158C99.399 82.8106 100.316 85.9596 100.227 89.1613C100.201 90.4939 100.076 91.8228 99.8514 93.1367C99.1006 97.5881 98.2006 101.913 97.1514 106.115C95.4028 112.966 92.3771 118.092 88.0744 121.493C83.776 124.844 78.0257 126.519 70.8235 126.519ZM71.8744 115.716C74.4727 115.788 77.0077 114.908 79.0022 113.241C81.2065 111.242 82.7061 108.584 83.2776 105.664C84.4285 100.964 85.3028 96.864 85.9006 93.3613C86.1018 92.2977 86.2023 91.2175 86.2006 90.135C86.2006 85.5831 83.8252 83.3077 79.0744 83.3088C76.455 83.246 73.8999 84.1242 71.8727 85.7842C69.7092 87.8044 68.2387 90.4561 67.6711 93.3613C66.7705 96.7121 65.8705 100.812 64.9711 105.664C64.7675 106.702 64.667 107.757 64.6711 108.815C64.6711 113.416 67.0722 115.716 71.8744 115.716Z" fill="black"/>
<path d="M103.682 125.77C103.444 125.784 103.205 125.744 102.985 125.653C102.764 125.563 102.566 125.423 102.407 125.246C102.157 124.842 102.076 124.357 102.182 123.895L112.535 75.1308C112.626 74.5927 112.919 74.1097 113.354 73.78C113.756 73.4482 114.259 73.2633 114.781 73.2554H134.736C139.435 73.0249 144.092 74.2284 148.09 76.7062C149.734 77.783 151.069 79.2696 151.964 81.0193C152.858 82.7691 153.282 84.7218 153.192 86.6849C153.185 87.998 153.034 89.3064 152.741 90.5866C151.914 95.6412 149.208 100.197 145.164 103.341C141.413 106.091 136.262 107.467 129.71 107.467H119.584L116.133 123.896C116.041 124.434 115.748 124.917 115.313 125.247C114.912 125.579 114.409 125.764 113.889 125.772L103.682 125.77ZM130.24 97.1112C132.205 97.1545 134.13 96.5483 135.717 95.3866C137.349 94.188 138.473 92.4218 138.867 90.4357C139.007 89.6933 139.082 88.9402 139.092 88.1849C139.135 87.5747 139.042 86.9626 138.822 86.392C138.602 85.8214 138.258 85.3064 137.817 84.8833C136.565 83.9587 135.015 83.5311 133.466 83.6833H124.464L121.613 97.1112H130.24Z" fill="black"/>
<path d="M282.161 150.012C276.393 150.012 271.037 149.234 266.093 147.677C261.149 146.121 256.984 143.786 253.596 140.673C250.208 137.56 247.782 133.669 246.317 129C244.944 124.331 244.761 118.883 245.768 112.657C246.5 108.72 247.279 104.783 248.103 100.847C249.018 96.9096 249.934 92.9269 250.849 88.8985C253.871 76.5385 259.318 67.1541 267.192 60.7452C275.066 54.3363 285.686 51.1318 299.053 51.1318C304.821 51.1318 310.132 51.9558 314.984 53.6038C319.928 55.1603 324.094 57.5407 327.481 60.7452C330.96 63.9496 333.387 67.8865 334.76 72.5558C336.225 77.2252 336.408 82.6727 335.309 88.8985C334.668 92.9269 333.89 96.9096 332.975 100.847C332.151 104.783 331.281 108.72 330.365 112.657C327.252 125.2 321.759 134.585 313.885 140.811C306.012 146.945 295.437 150.012 282.161 150.012ZM283.947 130.236C288.891 130.236 293.24 128.771 296.993 125.841C300.747 122.911 303.402 118.242 304.959 111.833C305.966 107.805 306.836 104.005 307.568 100.435C308.392 96.8638 309.124 93.1558 309.765 89.3105C310.956 82.9016 310.406 78.2323 308.117 75.3025C305.828 72.3727 302.212 70.9078 297.268 70.9078C292.324 70.9078 287.975 72.3727 284.221 75.3025C280.559 78.2323 277.95 82.9016 276.393 89.3105C275.386 93.1558 274.471 96.8638 273.647 100.435C272.914 104.005 272.182 107.805 271.449 111.833C270.351 118.242 270.9 122.911 273.097 125.841C275.295 128.771 278.911 130.236 283.947 130.236ZM349.855 148.639C348.939 148.639 348.207 148.318 347.658 147.677C347.108 147.036 346.925 146.212 347.108 145.205L366.06 55.9385C366.243 54.9314 366.747 54.1074 367.571 53.4665C368.395 52.8256 369.265 52.5052 370.18 52.5052H406.711C412.296 52.5052 417.331 53.1461 421.818 54.4278C426.395 55.7096 430.195 57.6781 433.216 60.3332C436.238 62.9883 438.343 66.3301 439.534 70.3585C440.724 74.2954 440.77 78.919 439.671 84.2292C437.382 94.7581 432.713 102.54 425.663 107.576C418.705 112.611 409.32 115.129 397.51 115.129H378.97L372.652 145.205C372.469 146.212 371.966 147.036 371.142 147.677C370.409 148.318 369.539 148.639 368.532 148.639H349.855ZM382.54 96.1772H398.334C402.087 96.1772 405.429 95.1701 408.359 93.1558C411.38 91.1416 413.349 88.0745 414.264 83.9545C414.722 81.5741 414.814 79.4683 414.539 77.6372C414.264 75.8061 413.303 74.3412 411.655 73.2425C410.099 72.1438 407.672 71.5945 404.376 71.5945H387.896L382.54 96.1772ZM465.048 148.639C464.04 148.639 463.262 148.318 462.713 147.677C462.164 147.036 461.98 146.212 462.164 145.205L477.408 74.0665H452.962C452.047 74.0665 451.314 73.7461 450.765 73.1052C450.216 72.3727 450.032 71.5487 450.216 70.6332L453.374 55.9385C453.557 54.9314 454.015 54.1074 454.748 53.4665C455.572 52.8256 456.487 52.5052 457.494 52.5052H531.378C532.386 52.5052 533.118 52.8256 533.576 53.4665C534.125 54.1074 534.308 54.9314 534.125 55.9385L530.966 70.6332C530.783 71.5487 530.28 72.3727 529.456 73.1052C528.725 73.7461 527.855 74.0665 526.848 74.0665H502.402L487.296 145.205C487.112 146.212 486.609 147.036 485.785 147.677C485.052 148.318 484.183 148.639 483.176 148.639H465.048ZM537.003 148.639C535.996 148.639 535.218 148.318 534.669 147.677C534.119 147.036 533.936 146.212 534.119 145.205L553.209 55.9385C553.392 54.9314 553.895 54.1074 554.719 53.4665C555.543 52.8256 556.413 52.5052 557.329 52.5052H575.869C576.784 52.5052 577.517 52.8256 578.066 53.4665C578.615 54.1074 578.799 54.9314 578.615 55.9385L559.526 145.205C559.343 146.212 558.839 147.036 558.015 147.677C557.283 148.318 556.459 148.639 555.543 148.639H537.003ZM593.342 148.639C592.334 148.639 591.556 148.318 591.007 147.677C590.458 147.036 590.274 146.212 590.458 145.205L609.41 55.9385C609.593 54.9314 610.096 54.1074 610.92 53.4665C611.744 52.8256 612.66 52.5052 613.667 52.5052H628.499C629.964 52.5052 630.971 52.9172 631.52 53.7412C632.161 54.4736 632.573 55.0687 632.756 55.5265L647.588 98.9238L681.098 55.5265C681.372 55.0687 681.922 54.4736 682.746 53.7412C683.661 52.9172 684.851 52.5052 686.316 52.5052H701.148C702.155 52.5052 702.934 52.8256 703.483 53.4665C704.032 54.1074 704.215 54.9314 704.032 55.9385L685.08 145.205C684.897 146.212 684.394 147.036 683.57 147.677C682.746 148.318 681.83 148.639 680.823 148.639H664.343C663.427 148.639 662.695 148.318 662.146 147.677C661.596 147.036 661.413 146.212 661.596 145.205L672.308 94.5292L651.296 122.408C650.655 123.14 649.877 123.873 648.962 124.605C648.138 125.246 647.085 125.567 645.803 125.567H638.662C637.38 125.567 636.464 125.246 635.915 124.605C635.366 123.964 634.954 123.232 634.679 122.408L624.928 93.2932L613.804 145.205C613.621 146.212 613.118 147.036 612.294 147.677C611.561 148.318 610.737 148.639 609.822 148.639H593.342ZM714.487 148.639C713.48 148.639 712.701 148.318 712.152 147.677C711.603 147.036 711.42 146.212 711.603 145.205L730.692 55.9385C730.875 54.9314 731.379 54.1074 732.203 53.4665C733.027 52.8256 733.896 52.5052 734.812 52.5052H753.352C754.268 52.5052 755 52.8256 755.549 53.4665C756.099 54.1074 756.282 54.9314 756.099 55.9385L737.009 145.205C736.826 146.212 736.323 147.036 735.499 147.677C734.766 148.318 733.942 148.639 733.027 148.639H714.487ZM801.31 150.012C792.154 150.012 784.647 148.73 778.787 146.167C773.019 143.603 768.854 140.215 766.29 136.004C763.818 131.701 762.948 127.169 763.681 122.408C763.864 121.675 764.23 121.035 764.779 120.485C765.42 119.844 766.153 119.524 766.977 119.524H784.555C785.837 119.524 786.753 119.753 787.302 120.211C787.851 120.668 788.401 121.263 788.95 121.996C789.316 123.369 790.049 124.697 791.147 125.979C792.246 127.26 793.757 128.313 795.679 129.137C797.694 129.87 800.166 130.236 803.095 130.236C808.406 130.236 812.663 129.412 815.867 127.764C819.072 126.116 820.949 123.873 821.498 121.035C822.047 119.02 821.681 117.372 820.399 116.091C819.209 114.717 817.058 113.527 813.945 112.52C810.923 111.421 806.849 110.323 801.722 109.224C795.038 107.759 789.545 105.745 785.242 103.181C780.939 100.526 777.918 97.1843 776.178 93.1558C774.53 89.0358 774.301 84.1376 775.491 78.4612C777.322 70.0381 781.854 63.4003 789.087 58.5478C796.32 53.6038 805.705 51.1318 817.241 51.1318C823.192 51.1318 828.456 51.9558 833.034 53.6038C837.703 55.2518 841.594 57.4492 844.707 60.1958C847.82 62.9425 850.063 65.8723 851.437 68.9852C852.81 72.0065 853.268 74.9821 852.81 77.9118C852.718 78.6443 852.352 79.331 851.711 79.9718C851.07 80.5212 850.338 80.7958 849.514 80.7958H831.111C830.196 80.7958 829.372 80.6127 828.639 80.2465C827.998 79.8803 827.449 79.2852 826.991 78.4612C826.991 76.447 825.938 74.7074 823.833 73.2425C821.727 71.6861 818.934 70.9078 815.455 70.9078C811.518 70.9078 808.222 71.6403 805.567 73.1052C802.912 74.4785 801.264 76.6301 800.623 79.5598C800.166 81.391 800.394 82.9932 801.31 84.3665C802.317 85.7398 804.148 86.9301 806.803 87.9372C809.55 88.9443 813.304 89.9972 818.065 91.0958C826.122 92.6523 832.439 94.7581 837.017 97.4132C841.594 99.9767 844.662 103.227 846.218 107.164C847.866 111.101 848.095 115.907 846.905 121.584C844.89 130.923 839.992 138.018 832.21 142.871C824.519 147.631 814.219 150.012 801.31 150.012ZM863.811 148.639C862.804 148.639 862.026 148.318 861.476 147.677C860.927 147.036 860.744 146.212 860.927 145.205L879.879 55.9385C880.062 54.9314 880.566 54.1074 881.39 53.4665C882.214 52.8256 883.129 52.5052 884.136 52.5052H898.968C900.433 52.5052 901.44 52.9172 901.99 53.7412C902.631 54.4736 903.043 55.0687 903.226 55.5265L918.058 98.9238L951.567 55.5265C951.842 55.0687 952.391 54.4736 953.215 53.7412C954.131 52.9172 955.321 52.5052 956.786 52.5052H971.618C972.625 52.5052 973.403 52.8256 973.952 53.4665C974.502 54.1074 974.685 54.9314 974.502 55.9385L955.55 145.205C955.367 146.212 954.863 147.036 954.039 147.677C953.215 148.318 952.299 148.639 951.292 148.639H934.812C933.897 148.639 933.164 148.318 932.615 147.677C932.066 147.036 931.883 146.212 932.066 145.205L942.778 94.5292L921.766 122.408C921.125 123.14 920.347 123.873 919.431 124.605C918.607 125.246 917.554 125.567 916.272 125.567H909.131C907.849 125.567 906.934 125.246 906.384 124.605C905.835 123.964 905.423 123.232 905.148 122.408L895.398 93.2932L884.274 145.205C884.091 146.212 883.587 147.036 882.763 147.677C882.031 148.318 881.207 148.639 880.291 148.639H863.811Z" fill="white"/>
</svg>
