<svg width="2499" height="1037" viewBox="0 0 2499 1037" fill="none" xmlns="http://www.w3.org/2000/svg">
<mask id="mask0_2484_4118" style="mask-type:luminance" maskUnits="userSpaceOnUse" x="0" y="0" width="2499" height="1037">
<path d="M0.332031 0.777344H2498.25V1036.91H0.332031V0.777344Z" fill="white"/>
</mask>
<g mask="url(#mask0_2484_4118)">
<path fill-rule="evenodd" clip-rule="evenodd" d="M261.062 466.856C207.229 446.944 177.727 431.458 177.727 407.121C177.727 386.469 194.69 374.671 224.928 374.671C280.238 374.671 337.019 396.059 376.106 415.23L398.23 278.803C367.257 264.052 303.833 239.715 216.079 239.715C154.132 239.715 102.506 255.938 65.6361 286.176C27.2843 317.885 7.37279 363.609 7.37279 418.919C7.37279 519.212 68.5841 561.989 168.142 598.122C232.301 620.982 253.689 637.21 253.689 662.282C253.689 686.618 233.037 700.628 195.426 700.628C148.966 700.628 72.2732 677.769 22.1239 648.272L0 786.176C42.771 810.512 122.417 835.584 205.017 835.584C270.647 835.584 325.221 820.097 362.096 790.6C403.391 758.15 424.779 710.219 424.779 648.272C424.779 545.761 362.096 502.99 261.062 466.856ZM784.939 386.469L807.063 250.777H690.266V86.0539L533.23 111.895L510.553 250.777L455.321 259.738L434.646 386.469H510.326V652.697C510.326 722.016 528.025 769.953 564.159 799.45C594.397 823.786 637.904 835.584 699.115 835.584C746.311 835.584 775.072 827.475 794.983 822.309V678.504C783.921 681.458 758.85 686.618 741.886 686.618C705.752 686.618 690.266 668.183 690.266 626.148V386.469H784.939ZM1135.69 242.851C1084.07 242.851 1042.77 269.953 1026.55 318.626L1015.49 250.777H855.459V824.522H1038.35V452.105C1061.21 424.079 1093.66 413.947 1137.9 413.947C1147.49 413.947 1157.82 413.947 1170.35 416.159V247.276C1157.82 244.328 1146.75 242.851 1135.69 242.851ZM1306.79 193.991C1359.88 193.991 1402.65 150.484 1402.65 97.3869C1402.65 43.5484 1359.88 0.777344 1306.79 0.777344C1252.95 0.777344 1210.18 43.5484 1210.18 97.3869C1210.18 150.484 1252.95 193.991 1306.79 193.991ZM1214.6 250.777H1398.23V824.522H1214.6V250.777ZM1918.6 302.398C1886.15 260.363 1841.17 239.715 1783.64 239.715C1730.55 239.715 1684.09 261.839 1640.58 308.299L1630.99 250.777H1470.22V1036.91L1653.11 1006.68V822.309C1681.13 831.159 1709.89 835.584 1735.71 835.584C1781.43 835.584 1847.8 823.786 1899.42 767.741C1948.83 713.902 1973.91 630.573 1973.91 520.689C1973.91 423.344 1955.47 349.599 1918.6 302.398ZM1766.68 656.38C1751.93 684.406 1729.07 699.157 1702.52 699.157C1684.09 699.157 1667.86 695.468 1653.11 688.095V415.23C1684.09 382.785 1712.11 379.096 1722.43 379.096C1768.89 379.096 1791.75 429.245 1791.75 527.326C1791.75 583.371 1783.64 626.884 1766.68 656.38ZM2498.25 532.486C2498.25 441.043 2478.34 368.77 2439.25 317.885C2399.42 266.264 2339.69 239.715 2263.73 239.715C2108.12 239.715 2011.52 354.76 2011.52 539.124C2011.52 642.37 2037.33 719.804 2088.21 769.212C2133.94 813.46 2199.57 835.584 2284.38 835.584C2362.55 835.584 2434.82 817.149 2480.55 786.911L2460.64 661.546C2415.65 685.882 2363.29 699.157 2304.29 699.157C2268.89 699.157 2244.56 691.778 2226.86 676.292C2207.68 660.069 2196.62 633.521 2192.94 595.91H2496.03C2496.77 587.061 2498.25 545.761 2498.25 532.486ZM2191.46 483.814C2196.62 401.955 2218.74 363.609 2260.78 363.609C2302.08 363.609 2323.47 402.697 2326.42 483.814H2191.46Z" fill="white"/>
</g>
</svg>
