<svg width="177" height="53" viewBox="0 0 177 53" fill="none" xmlns="http://www.w3.org/2000/svg">
<path d="M43.1043 28.5C43.1043 37.6113 35.6971 45 26.5624 45C17.4268 45 10.0195 37.6113 10.0195 28.5C10.0195 19.3887 17.4268 12 26.5624 12C35.6971 12 43.1043 19.3887 43.1043 28.5Z" fill="white"/>
<path d="M36.0488 20.561C35.6522 19.5528 34.9868 18.6693 34.2437 17.9284C33.4601 17.2 32.5481 16.6195 31.5528 16.2157C30.9085 15.9586 30.2324 15.7874 29.5424 15.7067C27.0752 15.3503 24.4762 16.106 22.5909 17.9903C20.4143 20.1617 19.6496 23.3404 20.6097 26.2997V26.3286C20.0066 26.7041 19.4543 27.1537 18.9658 27.6667C18.2085 28.4587 17.5949 29.3794 17.1975 30.3876C16.808 31.3991 16.6127 32.4734 16.6214 33.5556C16.6214 34.6553 16.8526 35.7006 17.286 36.6724C17.6834 37.6806 18.3488 38.5641 19.091 39.305C19.8746 40.0334 20.7867 40.6139 21.7819 41.0177C22.7563 41.4137 23.8074 41.5927 24.8702 41.5927C24.72 41.5927 24.5722 41.5853 24.4252 41.5787C25.5706 41.6402 26.7161 41.4605 27.7859 41.0514C28.8556 40.6424 29.8252 40.0133 30.6303 39.206C31.6994 38.1473 32.4519 36.8174 32.8047 35.363C33.1576 33.9085 33.0971 32.386 32.6299 30.9634C33.2728 30.5791 33.8592 30.1091 34.3723 29.5667C35.1296 28.7747 35.7441 27.854 36.1406 26.8458C36.5305 25.8344 36.7264 24.7601 36.7184 23.6778C36.7194 22.6044 36.4928 21.5426 36.053 20.561M28.917 21.1476C28.8594 20.8889 28.8323 20.6245 28.836 20.3597C29.1341 20.4108 29.4171 20.4983 29.7002 20.6154C30.0976 20.7804 30.4432 21.0486 30.7112 21.3563C30.9684 21.6756 31.1963 22.0204 31.3249 22.4164C31.4652 22.8124 31.5052 23.2084 31.5052 23.6044C31.4607 24.3565 31.1404 25.0668 30.6044 25.6026L28.9179 21.1517L28.917 21.1476ZM30.844 26.2337C30.8949 26.1858 30.9467 26.138 30.9909 26.0827C31.3358 25.7238 31.5528 25.3427 31.7332 24.8947C31.9135 24.4476 31.9502 23.9633 31.9502 23.5277C31.9502 23.0434 31.8217 22.607 31.6413 22.211C31.461 21.815 31.1562 21.4553 30.8473 21.1517C30.5384 20.8836 30.141 20.6154 29.7444 20.4876C29.458 20.3853 29.145 20.3407 28.8294 20.3193C28.8418 19.8041 28.9737 19.2985 29.2151 18.8417C29.5749 18.911 29.9206 19.0174 30.2554 19.1717C30.869 19.439 31.3575 19.835 31.7916 20.2714C32.189 20.7557 32.5489 21.2796 32.7659 21.8554C32.983 22.4313 33.0749 23.0327 33.0749 23.6556C33.0749 24.2793 32.9463 24.8947 32.6783 25.4194C32.4581 25.9714 32.1122 26.4657 31.6672 26.864C31.5235 26.9925 31.3712 27.1113 31.2113 27.2196L30.8398 26.237L30.844 26.2337ZM31.4426 27.8136C31.6723 27.644 31.8898 27.459 32.0938 27.26C32.5422 26.7757 32.9388 26.1603 33.1558 25.5473C33.4238 24.884 33.5157 24.2207 33.5157 23.5673C33.5157 22.9155 33.3504 22.2514 33.079 21.6393C32.8131 21.0396 32.4251 20.5005 31.9394 20.0553C31.4535 19.6221 30.9283 19.2633 30.3138 19.0463C29.9672 18.9272 29.6091 18.8437 29.2451 18.7971C29.3988 18.515 29.5866 18.2543 29.8179 18.02C29.9982 17.8401 30.1969 17.6867 30.4023 17.5547C30.5676 17.6124 30.7296 17.6784 30.8874 17.7527C31.6548 18.0752 32.3449 18.5536 32.9129 19.1568C33.4906 19.7327 33.924 20.4843 34.2329 21.2243C34.5418 22.0163 34.6704 22.8454 34.6704 23.6374C34.6353 24.4535 34.4573 25.2574 34.1444 26.0134C33.8355 26.7171 33.3512 27.3664 32.7735 27.9423C32.4768 28.2386 32.1478 28.5014 31.7924 28.726L31.4426 27.8061V27.8136ZM22.8372 39.6498C22.7075 39.6013 22.58 39.5473 22.4549 39.4881C21.6875 39.1657 20.9974 38.6873 20.4294 38.084C19.8516 37.5081 19.4183 36.7566 19.1094 36.0124C18.8161 35.2412 18.669 34.4232 18.6752 33.5993C18.7086 32.783 18.8866 31.9788 19.2012 31.2233C19.5101 30.5196 19.9952 29.8703 20.573 29.2953C20.8467 29.0206 21.1483 28.7745 21.473 28.561L21.8295 29.485C21.6262 29.6385 21.4334 29.8053 21.2526 29.9841C20.8042 30.4684 20.4068 31.0847 20.1906 31.6968C19.9218 32.3601 19.8299 33.0243 19.8299 33.6768C19.8299 34.3286 19.9952 34.9927 20.2674 35.6057C20.5334 36.2053 20.9213 36.7444 21.4071 37.1897C21.8921 37.622 22.4173 37.9817 23.0351 38.1978C23.3482 38.3076 23.6755 38.3843 24.0028 38.4321C23.8516 38.7033 23.6634 38.9526 23.4434 39.173C23.2622 39.3537 23.0599 39.5124 22.8406 39.6457M23.0869 38.0658C22.4732 37.7977 21.9848 37.4017 21.5507 36.9653C21.1532 36.4818 20.7967 35.9571 20.5763 35.3813C20.3648 34.8044 20.2602 34.1947 20.2674 33.5811C20.2674 32.9583 20.396 32.342 20.6648 31.8173C20.8819 31.2563 21.2409 30.7695 21.6751 30.3735C21.797 30.263 21.9255 30.164 22.0574 30.0683L22.4398 31.0665C22.4106 31.0954 22.3814 31.121 22.3522 31.154C22.0065 31.5096 21.7894 31.8948 21.6091 32.342C21.4288 32.7891 21.392 33.2734 21.392 33.7098C21.392 34.1966 21.5206 34.6297 21.7009 35.0257C21.8813 35.4217 22.186 35.7814 22.4949 36.0858C22.8038 36.3531 23.2013 36.6213 23.5978 36.7491C23.8625 36.8407 24.1455 36.8894 24.4361 36.9108C24.4128 37.4238 24.2733 37.9251 24.0278 38.3777C23.7034 38.3086 23.3878 38.204 23.0869 38.0658ZM24.3701 36.0743C24.4252 36.3383 24.4436 36.6023 24.4361 36.863C24.1663 36.8092 23.9027 36.7282 23.6496 36.6213C23.2522 36.4563 22.9065 36.1881 22.6385 35.8804C22.3814 35.5611 22.1535 35.2163 22.0249 34.8203C21.8846 34.4243 21.8445 34.0283 21.8445 33.6323C21.8875 32.9098 22.1853 32.225 22.6861 31.6968L24.3701 36.0743ZM19.2939 39.1656C18.5358 38.4107 18.014 37.5411 17.6166 36.5734C17.2718 35.6527 17.0906 34.5934 17.0906 33.5853C17.1424 32.5763 17.3594 31.5681 17.7568 30.6483C18.1534 29.716 18.7671 28.8844 19.4734 28.184C19.9029 27.7597 20.3845 27.3902 20.9069 27.0843L21.1791 27.788C20.7633 28.0594 20.3776 28.3638 20.0395 28.7343C19.4231 29.3786 18.9444 30.139 18.6318 30.97C18.3229 31.7991 18.1977 32.6827 18.1977 33.563C18.2494 34.4317 18.4147 35.312 18.7746 36.104C19.1324 36.8959 19.6418 37.612 20.2749 38.2127C20.8973 38.7994 21.6273 39.2633 22.4256 39.5797C22.5392 39.6243 22.6536 39.6606 22.7679 39.701C22.2455 40.0068 21.6533 40.1771 21.0464 40.196C20.8302 40.2 20.6143 40.1778 20.4035 40.13C20.0056 39.8455 19.6352 39.5251 19.2972 39.173M35.5971 26.5967C35.1997 27.5273 34.586 28.3597 33.8797 29.0601C33.4269 29.5093 32.9153 29.8966 32.3585 30.2118L32.0938 29.5106C32.5445 29.2319 32.956 28.8957 33.3178 28.5107C33.9315 27.8573 34.4199 27.1057 34.7255 26.2733C35.0344 25.445 35.1596 24.5614 35.1596 23.6811C35.1079 22.8124 34.9425 21.9321 34.5819 21.1401C33.8689 19.5566 32.5595 18.3098 30.9317 17.6644C30.7824 17.6067 30.6302 17.5566 30.4758 17.5143C31.2197 17.0729 32.107 16.9311 32.9538 17.1183C33.3546 17.4037 33.7253 17.7263 34.0559 18.0753C34.814 18.8301 35.3358 19.6956 35.7324 20.6674C36.078 21.5873 36.2584 22.6474 36.2584 23.6556C36.2074 24.6637 35.9903 25.676 35.5929 26.5926" fill="#0E1E33"/>
<path d="M53.7387 39.2987C52.099 38.821 50.7798 38.2055 49.7871 37.4465L51.5329 33.5814C52.4847 34.2786 53.6177 34.8395 54.9301 35.2611C56.2426 35.6819 57.5542 35.8956 58.8667 35.8956C60.3303 35.8956 61.4073 35.6786 62.1061 35.2463C62.8041 34.814 63.1531 34.2381 63.1531 33.5195C63.1531 32.9915 62.9477 32.551 62.5353 32.2029C62.1237 31.8547 61.5943 31.5759 60.9473 31.363C60.3002 31.1502 59.4294 30.9192 58.3265 30.6667C56.6317 30.2666 55.2457 29.864 54.1687 29.4639C53.0913 29.0638 52.1349 28.3988 51.3901 27.5317C50.6178 26.644 50.2321 25.4634 50.2321 23.9858C50.2321 22.6989 50.5811 21.529 51.2791 20.4845C51.9779 19.4393 53.029 18.611 54.4375 17.998C55.8452 17.3858 57.5659 17.0781 59.5981 17.0781C61.0174 17.0781 62.4034 17.2464 63.7559 17.5838C65.1085 17.9213 66.2965 18.4089 67.3143 19.04L65.7263 22.9373C63.6716 21.779 61.6202 21.1957 59.5647 21.1957C58.1245 21.1957 57.0616 21.43 56.3745 21.892C55.6874 22.3581 55.3417 22.9703 55.3417 23.7293C55.3417 24.4883 55.7383 25.0567 56.5323 25.423C57.3263 25.7942 58.5394 26.1573 60.1683 26.5161C61.8632 26.9154 63.2491 27.3188 64.3262 27.7182C65.3981 28.1128 66.3533 28.7659 67.1047 29.6181C67.877 30.4836 68.2627 31.6559 68.2627 33.1343C68.2732 34.3701 67.9028 35.5798 67.2007 36.6026C66.4911 37.6479 65.4249 38.4761 64.0097 39.0891C62.5904 39.7013 60.8663 40.0049 58.8333 40.0049C57.1081 40.0094 55.3913 39.7687 53.7354 39.2904M74.3943 37.3797C72.626 35.6274 71.7443 33.1227 71.7443 29.8747V17.4584H76.8873V29.6841C76.8873 33.6549 78.5371 35.6381 81.8425 35.6381C83.4488 35.6381 84.6803 35.158 85.5261 34.1977C86.371 33.2366 86.7976 31.7334 86.7976 29.6841V17.4593H91.878V29.8747C91.878 33.1269 90.9922 35.6274 89.2272 37.3797C87.4597 39.1328 84.9892 40.009 81.8133 40.009C78.6364 40.009 76.166 39.1328 74.3985 37.3797M110.504 18.4418C111.953 19.0936 113.07 20.0258 113.853 21.2287C114.636 22.4307 115.029 23.8571 115.029 25.5038C115.029 27.1497 114.64 28.5506 113.853 29.7642C113.07 30.9777 111.953 31.9091 110.504 32.551C109.056 33.1961 107.343 33.5187 105.376 33.5187H100.898V39.632H95.7553V17.4584H105.376C107.346 17.4584 109.056 17.7843 110.504 18.4402V18.4418ZM108.615 28.3377C109.419 27.6744 109.82 26.729 109.82 25.5038C109.82 24.2787 109.419 23.3036 108.615 22.6403C107.81 21.9762 106.633 21.642 105.09 21.642H100.898V29.3393H105.09C106.633 29.3393 107.81 29.0051 108.615 28.341M132.91 39.6311L128.624 33.4527H123.893V39.632H118.749V17.4584H128.37C130.34 17.4584 132.05 17.7843 133.498 18.4402C134.947 19.0936 136.065 20.0242 136.847 21.2279C137.63 22.4299 138.023 23.8563 138.023 25.503C138.023 27.1489 137.627 28.572 136.833 29.7633C136.039 30.9596 134.91 31.8679 133.451 32.5023L138.436 39.6303L132.91 39.6311ZM131.609 22.6403C130.804 21.9762 129.627 21.642 128.084 21.642H123.893V29.3723H128.084C129.627 29.3723 130.804 29.034 131.609 28.36C132.414 27.6851 132.814 26.7356 132.814 25.5113C132.814 24.2862 132.414 23.311 131.609 22.6436M157.846 34.8792H147.526L145.556 39.6311H140.284L150.192 17.4593H155.272L165.212 39.6311H159.816L157.846 34.8792ZM156.224 30.9819L152.698 22.4926L149.173 30.9819H156.224Z" fill="white"/>
</svg>
