<svg width="20" height="20" viewBox="0 0 20 20" fill="none" xmlns="http://www.w3.org/2000/svg">
<path d="M10 11L10 19M10 11C10.5523 11 11 10.5523 11 10C11 9.44772 10.5523 9 10 9C9.44772 9 9 9.44772 9 10C9 10.5523 9.44772 11 10 11ZM13.5355 13.5355C15.4882 11.5829 15.4882 8.41709 13.5355 6.46447C11.5829 4.51184 8.41709 4.51184 6.46447 6.46447C4.51184 8.41709 4.51184 11.5829 6.46447 13.5355M16.364 16.364C19.8787 12.8492 19.8787 7.15076 16.364 3.63604C12.8492 0.12132 7.15076 0.12132 3.63604 3.63604C0.12132 7.15076 0.12132 12.8492 3.63604 16.364" stroke="white" stroke-width="1.4" stroke-linecap="round" stroke-linejoin="round"/>
</svg>
